<?xml version="1.0" encoding="UTF-8"?>
<svg width="700pt" height="700pt" version="1.1" viewBox="0 0 700 700" xmlns="http://www.w3.org/2000/svg">
 <path d="m598.9 235.01-226.12-203.54c-13.195-11.305-32.34-11.324-45.867 0.28125l-225.09 202.68c-13.477 10.047-17.988 27.477-10.676 43.191 5.8281 12.531 19.215 19.879 33.039 19.879h50.785v175c0 28.996 23.504 52.5 52.5 52.5h70c9.6602 0 17.5-7.8398 17.5-17.5v-70c0-9.6602 7.8398-17.5 17.5-17.5h35c9.6602 0 17.5 7.8398 17.5 17.5v70c0 9.6602 7.8398 17.5 17.5 17.5h70c28.996 0 52.5-23.504 52.5-52.5v-175h49.629c15.086 0 32.48-11.375 36.434-25.934 3.7109-13.668-0.94531-27.738-12.164-36.559z"/>
</svg>
