<?xml version="1.0" encoding="UTF-8"?>
<svg width="700pt" height="700pt" version="1.1" viewBox="0 0 700 700" xmlns="http://www.w3.org/2000/svg">
 <path d="m560 70h-256.67c-25.758 0-46.664 20.883-46.664 46.668v163.33c0 25.785 20.906 46.668 46.664 46.668h140l116.67 93.332v-93.332c25.785 0 46.668-20.883 46.668-46.668v-163.33c0-25.785-20.883-46.668-46.668-46.668m-326.67 233.33v-116.66h-93.332c-25.762 0-46.668 20.906-46.668 46.664v140c0 25.762 20.906 46.668 46.668 46.668h23.332v93.332l140-93.332h70c25.785 0 46.668-20.906 46.668-46.668v-23.332h-140c-25.785 0-46.668-20.883-46.668-46.668" fill-rule="evenodd"/>
</svg>
