<?xml version="1.0" encoding="UTF-8"?>
<svg width="700pt" height="700pt" version="1.1" viewBox="0 0 700 700" xmlns="http://www.w3.org/2000/svg">
 <path d="m560 140c0-4.6406-1.8438-9.0938-5.125-12.375s-7.7344-5.125-12.375-5.125c-97.301 0-180.77-65.449-181.65-66.148-3.082-2.4648-6.9062-3.8086-10.852-3.8086s-7.7695 1.3438-10.852 3.8086c-0.875 0.69922-84 66.148-181.65 66.148-4.6406 0-9.0938 1.8438-12.375 5.125s-5.125 7.7344-5.125 12.375v157.5c0 55.695 22.125 109.11 61.508 148.49 39.383 39.383 92.797 61.508 148.49 61.508s109.11-22.125 148.49-61.508c39.383-39.383 61.508-92.797 61.508-148.49zm-92.574 108.68-122.5 122.5c-3.3164 3.2539-7.7773 5.0742-12.426 5.0742s-9.1094-1.8203-12.426-5.0742l-70-70c-4.4375-4.4414-6.1719-10.91-4.5469-16.973 1.625-6.0664 6.3594-10.801 12.426-12.426 6.0625-1.625 12.531 0.10938 16.973 4.5469l57.574 57.75 110.07-110.25c4.4414-4.4375 10.91-6.1719 16.973-4.5469 6.0664 1.625 10.801 6.3594 12.426 12.426 1.625 6.0625-0.10938 12.531-4.5469 16.973z"/>
</svg>
