<?xml version="1.0" encoding="UTF-8"?>
<svg width="700pt" height="700pt" version="1.1" viewBox="0 0 700 700" xmlns="http://www.w3.org/2000/svg">
 <g>
  <path d="m464.62 177.33c0.074219-30.418-11.945-59.617-33.406-81.168-21.465-21.551-50.613-33.688-81.031-33.738-30.418-0.046875-59.605 11.992-81.141 33.473-21.535 21.484-33.648 50.645-33.672 81.059-0.023438 30.418 12.043 59.598 33.539 81.113 21.5 21.516 50.668 33.605 81.086 33.605 30.348-0.007813 59.457-12.051 80.941-33.484 21.488-21.434 33.602-50.512 33.684-80.859z"/>
  <path d="m218.54 283.25c-32.715 10.219-61.316 30.613-81.641 58.215-20.324 27.602-31.309 60.969-31.355 95.242-0.11328 15.941 6.2617 31.242 17.656 42.387 11.211 11.688 26.719 18.266 42.91 18.199h367.78c16.062-0.011719 31.461-6.4023 42.816-17.762 11.359-11.359 17.742-26.762 17.75-42.824 0.125-42.715-16.898-83.691-47.25-113.75-18.285-18.457-40.871-32.086-65.73-39.652-16.227 20.191-36.973 36.289-60.566 46.988-22.188 10.379-46.383 15.758-70.875 15.758-24.496 0-48.688-5.3789-70.875-15.758-23.617-10.707-44.383-26.824-60.621-47.043z"/>
 </g>
</svg>
