<?xml version="1.0" encoding="UTF-8"?>
<svg width="700pt" height="700pt" version="1.1" viewBox="0 0 700 700" xmlns="http://www.w3.org/2000/svg">
 <g fill-rule="evenodd">
  <path d="m213.37 107.67c-8.2305-3.8438-18.02-2.6328-24.586 3.6445-15.129 14.465-28.316 30.945-39.133 49.012-4.668 7.7969-3.668 17.609 1.9102 24.781l11.863 15.242c18.121 23.289 10.348 57.34-16.082 70.461l-17.273 8.5703c-8.1289 4.0352-13.285 12.43-12.484 21.469 1.8906 21.355 6.6602 41.887 13.914 61.199 3.1953 8.4961 11.48 13.82 20.555 13.93l19.344 0.23047c29.508 0.35156 51.285 27.66 45.062 56.504l-4.0703 18.863c-1.9141 8.8711 1.4297 18.133 8.9961 23.141 17.359 11.488 36.344 20.719 56.535 27.27 8.6289 2.8008 17.961-0.35938 23.703-7.3867l12.238-14.98c18.676-22.852 53.602-22.852 72.273 0l12.242 14.98c5.7422 7.0273 15.07 10.188 23.699 7.3867 20.191-6.5508 39.176-15.781 56.535-27.27 7.5664-5.0078 10.91-14.27 8.9961-23.141l-4.0664-18.863c-6.2266-28.844 15.551-56.152 45.059-56.504l19.344-0.23047c9.0742-0.10938 17.359-5.4336 20.551-13.93 7.2578-19.312 12.027-39.844 13.918-61.199 0.80078-9.0391-4.3555-17.434-12.484-21.469l-17.27-8.5703c-26.434-13.121-34.207-47.172-16.086-70.461l11.863-15.242c5.5781-7.1719 6.5781-16.988 1.9102-24.781-10.812-18.066-24.004-34.547-39.137-49.012-6.5664-6.2773-16.352-7.4883-24.582-3.6445l-17.457 8.1562c-26.738 12.484-58.207-2.6719-65.117-31.359l-4.5195-18.77c-2.125-8.8359-9.1797-15.734-18.188-16.945-10.254-1.375-20.719-2.0859-31.348-2.0859s-21.094 0.71094-31.348 2.0859c-9.0078 1.2109-16.059 8.1094-18.188 16.945l-4.5195 18.77c-6.9102 28.688-38.379 43.844-65.117 31.359zm136.63 242.33c38.66 0 70-31.34 70-70s-31.34-70-70-70-70 31.34-70 70 31.34 70 70 70z"/>
  <path d="m422.08 501.99c-8.6289 2.8008-17.957-0.35938-23.699-7.3867l-12.242-14.98c-18.672-22.852-53.598-22.852-72.273 0l-12.238 14.98c-5.7422 7.0273-15.074 10.188-23.703 7.3867-20.191-6.5508-39.176-15.781-56.535-27.27-7.5664-5.0078-10.91-14.27-8.9961-23.141l4.0703-18.863c6.2227-28.844-15.555-56.152-45.062-56.504l-19.344-0.23047c-9.0742-0.10938-17.359-5.4336-20.555-13.93-7.2539-19.312-12.023-39.844-13.914-61.199-0.80078-9.0391 4.3555-17.434 12.484-21.469l17.273-8.5703c26.43-13.121 34.203-47.172 16.082-70.461l-11.863-15.242c-5.5781-7.1719-6.5781-16.984-1.9102-24.781 10.816-18.066 24.004-34.547 39.133-49.012 6.5664-6.2773 16.355-7.4883 24.586-3.6445l17.457 8.1562c26.738 12.484 58.207-2.6719 65.117-31.359l4.5195-18.77c2.1289-8.8359 9.1797-15.734 18.188-16.945 10.254-1.375 20.719-2.0859 31.348-2.0859s21.094 0.71094 31.348 2.0859c9.0078 1.2109 16.062 8.1094 18.188 16.945l4.5195 18.77c6.9102 28.688 38.379 43.844 65.117 31.359l17.457-8.1562c8.2305-3.8438 18.016-2.6328 24.582 3.6445 15.133 14.465 28.324 30.945 39.137 49.012 4.668 7.793 3.668 17.609-1.9102 24.781l-11.863 15.242c-18.121 23.289-10.348 57.34 16.086 70.461l17.27 8.5703c8.1289 4.0352 13.285 12.43 12.484 21.469-1.8906 21.355-6.6602 41.887-13.918 61.199-3.1914 8.4961-11.477 13.82-20.551 13.93l-19.344 0.23047c-29.508 0.35156-51.285 27.66-45.059 56.504l4.0664 18.863c1.9141 8.8711-1.4297 18.133-8.9961 23.141-17.359 11.488-36.344 20.719-56.535 27.27zm-2.0781-221.99c0 38.66-31.34 70-70 70s-70-31.34-70-70 31.34-70 70-70 70 31.34 70 70z"/>
 </g>
</svg>
