<?xml version="1.0" encoding="UTF-8"?>
<svg width="700pt" height="700pt" version="1.1" viewBox="0 0 700 700" xmlns="http://www.w3.org/2000/svg" xmlns:xlink="http://www.w3.org/1999/xlink">
 <defs>
  <symbol id="v" overflow="visible">
   <path d="m1.8281-0.10938c-0.09375 0.054688-0.19531 0.089844-0.29688 0.10938-0.09375 0.019531-0.19922 0.03125-0.3125 0.03125-0.33594 0-0.60156-0.085938-0.79688-0.26562-0.1875-0.1875-0.28125-0.44141-0.28125-0.76562 0-0.3125 0.09375-0.5625 0.28125-0.75 0.19531-0.1875 0.46094-0.28125 0.79688-0.28125 0.11328 0 0.21875 0.015625 0.3125 0.046875 0.10156 0.023437 0.20312 0.058594 0.29688 0.10938v0.40625c-0.09375-0.0625-0.1875-0.10938-0.28125-0.14062s-0.19531-0.046875-0.29688-0.046875c-0.17969 0-0.32031 0.0625-0.42188 0.1875-0.10547 0.11719-0.15625 0.27344-0.15625 0.46875 0 0.21094 0.050781 0.375 0.15625 0.5 0.10156 0.11719 0.24219 0.17188 0.42188 0.17188 0.10156 0 0.20312-0.015625 0.29688-0.046875s0.1875-0.078125 0.28125-0.14062z"/>
  </symbol>
  <symbol id="f" overflow="visible">
   <path d="m1.3438-1.0938c-0.042969-0.019531-0.085938-0.03125-0.125-0.03125-0.042969-0.007812-0.085938-0.015625-0.125-0.015625-0.125 0-0.22656 0.042969-0.29688 0.125-0.0625 0.074219-0.09375 0.18359-0.09375 0.32812v0.6875h-0.46875v-1.5h0.46875v0.25c0.0625-0.09375 0.12891-0.16016 0.20312-0.20312 0.082031-0.050781 0.17969-0.078125 0.29688-0.078125h0.046875c0.019531 0 0.050781 0.007812 0.09375 0.015625z"/>
  </symbol>
  <symbol id="a" overflow="visible">
   <path d="m1.7188-0.75v0.14062h-1.1094c0.007813 0.10547 0.046875 0.1875 0.10938 0.25 0.070312 0.054687 0.17188 0.078125 0.29688 0.078125 0.10156 0 0.20703-0.015625 0.3125-0.046875 0.10156-0.03125 0.21094-0.070313 0.32812-0.125v0.35938c-0.11719 0.042969-0.23047 0.074219-0.34375 0.09375-0.11719 0.019531-0.23047 0.03125-0.34375 0.03125-0.27344 0-0.48047-0.066406-0.625-0.20312-0.14844-0.13281-0.21875-0.32812-0.21875-0.57812 0-0.23828 0.070312-0.42578 0.21875-0.5625 0.14453-0.14453 0.34766-0.21875 0.60938-0.21875 0.22656 0 0.41016 0.074219 0.54688 0.21875 0.14453 0.13672 0.21875 0.32422 0.21875 0.5625zm-0.48438-0.15625c0-0.09375-0.027344-0.16406-0.078125-0.21875-0.054688-0.0625-0.125-0.09375-0.21875-0.09375-0.085938 0-0.15625 0.027344-0.21875 0.078125-0.0625 0.054687-0.10156 0.13281-0.10938 0.23438z"/>
  </symbol>
  <symbol id="e" overflow="visible">
   <path d="m0.90625-0.67188c-0.10547 0-0.18359 0.015625-0.23438 0.046875-0.054687 0.03125-0.078125 0.085938-0.078125 0.15625 0 0.0625 0.019531 0.10938 0.0625 0.14062 0.039062 0.03125 0.097656 0.046875 0.17188 0.046875 0.09375 0 0.16406-0.03125 0.21875-0.09375 0.0625-0.0625 0.09375-0.14453 0.09375-0.25v-0.046875zm0.71875-0.1875v0.85938h-0.48438v-0.21875c-0.0625 0.09375-0.13672 0.16406-0.21875 0.20312-0.074219 0.03125-0.16797 0.046875-0.28125 0.046875-0.15625 0-0.28125-0.039062-0.375-0.125-0.09375-0.09375-0.14062-0.21094-0.14062-0.35938 0-0.17578 0.054688-0.30078 0.17188-0.375 0.125-0.082031 0.3125-0.125 0.5625-0.125h0.28125v-0.046875c0-0.070312-0.03125-0.125-0.09375-0.15625-0.054687-0.039062-0.14062-0.0625-0.26562-0.0625-0.10547 0-0.20312 0.011719-0.29688 0.03125-0.085937 0.023438-0.16406 0.054688-0.23438 0.09375v-0.35938c0.10156-0.03125 0.20703-0.050781 0.3125-0.0625 0.10156-0.007813 0.20312-0.015625 0.29688-0.015625 0.26953 0 0.46094 0.054688 0.57812 0.15625 0.125 0.10547 0.1875 0.27734 0.1875 0.51562z"/>
  </symbol>
  <symbol id="d" overflow="visible">
   <path d="m0.75-1.9219v0.42188h0.5v0.34375h-0.5v0.64062c0 0.0625 0.007812 0.10938 0.03125 0.14062 0.03125 0.023438 0.085938 0.03125 0.17188 0.03125h0.25v0.34375h-0.40625c-0.1875 0-0.32422-0.035156-0.40625-0.10938-0.074219-0.082031-0.10938-0.21875-0.10938-0.40625v-0.64062h-0.25v-0.34375h0.25v-0.42188z"/>
  </symbol>
  <symbol id="k" overflow="visible">
   <path d="m1.25-1.2812v-0.79688h0.48438v2.0781h-0.48438v-0.21875c-0.074219 0.09375-0.15234 0.16406-0.23438 0.20312-0.074219 0.03125-0.16406 0.046875-0.26562 0.046875-0.17969 0-0.32812-0.070312-0.45312-0.21875-0.11719-0.14453-0.17188-0.33203-0.17188-0.5625 0-0.22656 0.054688-0.41406 0.17188-0.5625 0.125-0.14453 0.27344-0.21875 0.45312-0.21875 0.10156 0 0.19141 0.023438 0.26562 0.0625 0.082031 0.042969 0.16016 0.10547 0.23438 0.1875zm-0.3125 0.96875c0.09375 0 0.16406-0.035156 0.21875-0.10938 0.0625-0.070313 0.09375-0.17969 0.09375-0.32812 0-0.13281-0.03125-0.23828-0.09375-0.3125-0.054688-0.082031-0.125-0.125-0.21875-0.125-0.10547 0-0.18359 0.042969-0.23438 0.125-0.054687 0.074219-0.078125 0.17969-0.078125 0.3125 0 0.14844 0.023438 0.25781 0.078125 0.32812 0.050781 0.074219 0.12891 0.10938 0.23438 0.10938z"/>
  </symbol>
  <symbol id="j" overflow="visible">
   <path d="m1.0312-0.3125c0.09375 0 0.16406-0.035156 0.21875-0.10938 0.0625-0.070313 0.09375-0.17969 0.09375-0.32812 0-0.13281-0.03125-0.23828-0.09375-0.3125-0.054688-0.082031-0.125-0.125-0.21875-0.125-0.10547 0-0.1875 0.042969-0.25 0.125-0.054688 0.074219-0.078125 0.17969-0.078125 0.3125 0 0.14844 0.023437 0.25781 0.078125 0.32812 0.0625 0.074219 0.14453 0.10938 0.25 0.10938zm-0.32812-0.96875c0.070313-0.082031 0.14453-0.14453 0.21875-0.1875 0.082031-0.039062 0.17578-0.0625 0.28125-0.0625 0.1875 0 0.33594 0.074219 0.45312 0.21875 0.11328 0.14844 0.17188 0.33594 0.17188 0.5625 0 0.23047-0.058594 0.41797-0.17188 0.5625-0.11719 0.14844-0.26562 0.21875-0.45312 0.21875-0.10547 0-0.19922-0.015625-0.28125-0.046875-0.074219-0.039062-0.14844-0.10938-0.21875-0.20312v0.21875h-0.46875v-2.0781h0.46875z"/>
  </symbol>
  <symbol id="i" overflow="visible">
   <path d="m0.03125-1.5h0.48438l0.39062 1.0156 0.34375-1.0156h0.48438l-0.625 1.6406c-0.0625 0.16406-0.14062 0.28125-0.23438 0.34375-0.085938 0.070313-0.19531 0.10938-0.32812 0.10938h-0.26562v-0.3125h0.14062c0.082031 0 0.14062-0.015625 0.17188-0.046875 0.039062-0.023437 0.070312-0.070313 0.09375-0.14062l0.015625-0.03125z"/>
  </symbol>
  <symbol id="c" overflow="visible">
   <path d="m1.3906-1.4531v0.375c-0.09375-0.050781-0.19531-0.085937-0.29688-0.10938-0.09375-0.019531-0.18359-0.03125-0.26562-0.03125-0.085937 0-0.15234 0.015625-0.20312 0.046875-0.042969 0.023437-0.0625 0.054687-0.0625 0.09375 0 0.042969 0.015625 0.074219 0.046875 0.09375 0.03125 0.023437 0.09375 0.039063 0.1875 0.046875l0.078125 0.015625c0.25 0.03125 0.41406 0.085937 0.5 0.15625 0.082031 0.0625 0.125 0.17188 0.125 0.32812s-0.0625 0.27734-0.1875 0.35938c-0.11719 0.074219-0.28906 0.10938-0.51562 0.10938-0.10547 0-0.21094-0.011719-0.3125-0.03125-0.10547-0.0078125-0.21094-0.03125-0.3125-0.0625v-0.35938c0.09375 0.054687 0.1875 0.089844 0.28125 0.10938 0.10156 0.023438 0.20703 0.03125 0.3125 0.03125 0.09375 0 0.16016-0.007812 0.20312-0.03125 0.050781-0.03125 0.078125-0.070312 0.078125-0.125 0-0.039062-0.015625-0.070312-0.046875-0.09375-0.03125-0.019531-0.10156-0.035156-0.20312-0.046875l-0.078125-0.015625c-0.21875-0.019531-0.37109-0.066406-0.45312-0.14062-0.085937-0.070313-0.125-0.17969-0.125-0.32812 0-0.15625 0.050781-0.26953 0.15625-0.34375 0.11328-0.082031 0.28125-0.125 0.5-0.125 0.09375 0 0.1875 0.011719 0.28125 0.03125 0.10156 0.011719 0.20703 0.027344 0.3125 0.046875z"/>
  </symbol>
  <symbol id="b" overflow="visible">
   <path d="m1.7344-0.90625v0.90625h-0.48438v-0.6875c0-0.13281-0.007812-0.22266-0.015625-0.26562 0-0.050781-0.007813-0.09375-0.015625-0.125-0.023438-0.03125-0.046875-0.050781-0.078125-0.0625-0.03125-0.019531-0.070313-0.03125-0.10938-0.03125-0.10547 0-0.1875 0.042969-0.25 0.125-0.054688 0.074219-0.078125 0.17969-0.078125 0.3125v0.73438h-0.46875v-2.0781h0.46875v0.79688c0.070313-0.082031 0.14844-0.14453 0.23438-0.1875 0.082031-0.039062 0.17188-0.0625 0.26562-0.0625 0.17578 0 0.30469 0.054688 0.39062 0.15625 0.09375 0.10547 0.14062 0.26172 0.14062 0.46875z"/>
  </symbol>
  <symbol id="h" overflow="visible">
   <path d="m1.7344-0.90625v0.90625h-0.48438v-0.70312c0-0.125-0.007812-0.20703-0.015625-0.25 0-0.050781-0.007813-0.09375-0.015625-0.125-0.023438-0.03125-0.046875-0.050781-0.078125-0.0625-0.03125-0.019531-0.070313-0.03125-0.10938-0.03125-0.10547 0-0.1875 0.042969-0.25 0.125-0.054688 0.074219-0.078125 0.17969-0.078125 0.3125v0.73438h-0.46875v-1.5h0.46875v0.21875c0.070313-0.082031 0.14844-0.14453 0.23438-0.1875 0.082031-0.039062 0.17188-0.0625 0.26562-0.0625 0.17578 0 0.30469 0.054688 0.39062 0.15625 0.09375 0.10547 0.14062 0.26172 0.14062 0.46875z"/>
  </symbol>
  <symbol id="u" overflow="visible">
   <path d="m0.23438-2.0781h0.46875v1.125l0.54688-0.54688h0.5625l-0.73438 0.6875 0.79688 0.8125h-0.57812l-0.59375-0.625v0.625h-0.46875z"/>
  </symbol>
  <symbol id="t" overflow="visible">
   <path d="m0.23438-1.5h0.46875v1.5h-0.46875zm0-0.57812h0.46875v0.39062h-0.46875z"/>
  </symbol>
  <symbol id="s" overflow="visible">
   <path d="m1.25-0.25c-0.074219 0.085938-0.15234 0.14844-0.23438 0.1875-0.074219 0.042969-0.16406 0.0625-0.26562 0.0625-0.17969 0-0.32812-0.070312-0.45312-0.21875-0.11719-0.14453-0.17188-0.32812-0.17188-0.54688s0.054688-0.39844 0.17188-0.54688c0.125-0.14453 0.27344-0.21875 0.45312-0.21875 0.10156 0 0.19141 0.023438 0.26562 0.0625 0.082031 0.042969 0.16016 0.10547 0.23438 0.1875v-0.21875h0.48438v1.3438c0 0.23828-0.078125 0.42188-0.23438 0.54688-0.15625 0.13281-0.375 0.20312-0.65625 0.20312-0.09375 0-0.1875-0.011719-0.28125-0.03125-0.085938-0.011719-0.16797-0.03125-0.25-0.0625v-0.375c0.082031 0.050781 0.16016 0.085938 0.23438 0.10938 0.082031 0.03125 0.16406 0.046875 0.25 0.046875 0.15625 0 0.26953-0.039062 0.34375-0.10938 0.070313-0.074219 0.10938-0.17969 0.10938-0.32812zm-0.3125-0.9375c-0.10547 0-0.18359 0.039062-0.23438 0.10938-0.054687 0.074219-0.078125 0.17969-0.078125 0.3125 0 0.13672 0.023438 0.24219 0.078125 0.3125 0.050781 0.074219 0.12891 0.10938 0.23438 0.10938 0.09375 0 0.16406-0.035156 0.21875-0.10938 0.0625-0.070313 0.09375-0.17578 0.09375-0.3125 0-0.13281-0.03125-0.23828-0.09375-0.3125-0.054688-0.070313-0.125-0.10938-0.21875-0.10938z"/>
  </symbol>
  <symbol id="r" overflow="visible">
   <path d="m1.2188-2.0781v0.3125h-0.26562c-0.074219 0-0.125 0.015625-0.15625 0.046875-0.023437 0.023438-0.03125 0.0625-0.03125 0.125v0.09375h0.40625v0.34375h-0.40625v1.1562h-0.46875v-1.1562h-0.25v-0.34375h0.25v-0.09375c0-0.16406 0.039063-0.28516 0.125-0.35938 0.09375-0.082031 0.23438-0.125 0.42188-0.125z"/>
  </symbol>
  <symbol id="g" overflow="visible">
   <path d="m0.9375-1.1875c-0.10547 0-0.1875 0.039062-0.25 0.10938-0.054688 0.074219-0.078125 0.18359-0.078125 0.32812 0 0.14844 0.023437 0.26172 0.078125 0.34375 0.0625 0.074219 0.14453 0.10938 0.25 0.10938 0.10156 0 0.17969-0.035156 0.23438-0.10938 0.0625-0.082031 0.09375-0.19531 0.09375-0.34375 0-0.14453-0.03125-0.25391-0.09375-0.32812-0.054687-0.070313-0.13281-0.10938-0.23438-0.10938zm0-0.34375c0.25781 0 0.46094 0.074219 0.60938 0.21875 0.14453 0.13672 0.21875 0.32422 0.21875 0.5625 0 0.25-0.074219 0.44531-0.21875 0.57812-0.14844 0.13672-0.35156 0.20312-0.60938 0.20312-0.26172 0-0.46484-0.066406-0.60938-0.20312-0.13672-0.13281-0.20312-0.32812-0.20312-0.57812 0-0.23828 0.066406-0.42578 0.20312-0.5625 0.14453-0.14453 0.34766-0.21875 0.60938-0.21875z"/>
  </symbol>
  <symbol id="q" overflow="visible">
   <path d="m1.6094-1.25c0.0625-0.09375 0.13281-0.16016 0.21875-0.20312 0.082031-0.050781 0.17578-0.078125 0.28125-0.078125 0.16406 0 0.29688 0.054688 0.39062 0.15625 0.09375 0.10547 0.14062 0.26172 0.14062 0.46875v0.90625h-0.48438v-0.78125-0.03125-0.0625c0-0.10156-0.015625-0.17578-0.046875-0.21875-0.03125-0.050781-0.085937-0.078125-0.15625-0.078125-0.085937 0-0.15234 0.039063-0.20312 0.10938-0.054688 0.074219-0.078125 0.18359-0.078125 0.32812v0.73438h-0.48438v-0.78125c0-0.16406-0.015625-0.26953-0.046875-0.3125-0.023437-0.050781-0.070313-0.078125-0.14062-0.078125-0.09375 0-0.16797 0.042969-0.21875 0.125-0.054688 0.074219-0.078125 0.17969-0.078125 0.3125v0.73438h-0.46875v-1.5h0.46875v0.21875c0.0625-0.082031 0.12891-0.14453 0.20312-0.1875 0.082031-0.039062 0.16406-0.0625 0.25-0.0625 0.10156 0 0.19141 0.027344 0.26562 0.078125 0.082031 0.054687 0.14453 0.12109 0.1875 0.20312z"/>
  </symbol>
  <symbol id="p" overflow="visible">
   <path d="m0.25-2h0.57812l0.71875 1.375v-1.375h0.48438v2h-0.5625l-0.73438-1.375v1.375h-0.48438z"/>
  </symbol>
  <symbol id="o" overflow="visible">
   <path d="m0.21875-0.57812v-0.92188h0.46875v0.15625 0.3125 0.23438 0.26562c0.007812 0.054688 0.023438 0.089844 0.046875 0.10938 0.019531 0.03125 0.046875 0.058594 0.078125 0.078125 0.03125 0.011719 0.066406 0.015625 0.10938 0.015625 0.09375 0 0.16406-0.035156 0.21875-0.10938 0.0625-0.070312 0.09375-0.17578 0.09375-0.3125v-0.75h0.48438v1.5h-0.48438v-0.21875c-0.074219 0.09375-0.15234 0.16406-0.23438 0.20312-0.074219 0.03125-0.15625 0.046875-0.25 0.046875-0.17969 0-0.3125-0.050781-0.40625-0.15625-0.085938-0.10156-0.125-0.25391-0.125-0.45312z"/>
  </symbol>
  <symbol id="n" overflow="visible">
   <path d="m0.25-2h0.85938c0.25 0 0.44141 0.058594 0.57812 0.17188 0.13281 0.11719 0.20312 0.27734 0.20312 0.48438 0 0.21094-0.070313 0.37109-0.20312 0.48438-0.13672 0.11719-0.32812 0.17188-0.57812 0.17188h-0.34375v0.6875h-0.51562zm0.51562 0.375v0.5625h0.28125c0.10156 0 0.17969-0.019531 0.23438-0.0625 0.050781-0.050781 0.078125-0.125 0.078125-0.21875s-0.027344-0.16016-0.078125-0.20312c-0.054688-0.050781-0.13281-0.078125-0.23438-0.078125z"/>
  </symbol>
  <symbol id="m" overflow="visible">
   <path d="m0.23438-1.5h0.46875v1.4688c0 0.20703-0.046875 0.36328-0.14062 0.46875-0.09375 0.10156-0.23438 0.15625-0.42188 0.15625h-0.23438v-0.3125h0.078125c0.09375 0 0.15625-0.023438 0.1875-0.0625 0.039063-0.042969 0.0625-0.125 0.0625-0.25zm0-0.57812h0.46875v0.39062h-0.46875z"/>
  </symbol>
  <symbol id="l" overflow="visible">
   <path d="m1.4375-1.4531v0.39062c-0.0625-0.039062-0.13281-0.070312-0.20312-0.09375-0.0625-0.019531-0.13281-0.03125-0.20312-0.03125-0.125 0-0.23047 0.042969-0.3125 0.125-0.074219 0.074219-0.10938 0.17969-0.10938 0.3125 0 0.14844 0.035156 0.26172 0.10938 0.34375 0.082031 0.074219 0.1875 0.10938 0.3125 0.10938 0.082031 0 0.15625-0.007813 0.21875-0.03125 0.070312-0.03125 0.13281-0.066406 0.1875-0.10938v0.39062c-0.074219 0.03125-0.15234 0.050781-0.23438 0.0625-0.074219 0.0078125-0.14844 0.015625-0.21875 0.015625-0.27344 0-0.48438-0.066406-0.64062-0.20312-0.14844-0.13281-0.21875-0.32812-0.21875-0.57812 0-0.23828 0.070312-0.42578 0.21875-0.5625 0.15625-0.14453 0.36719-0.21875 0.64062-0.21875 0.070313 0 0.14453 0.011719 0.21875 0.03125 0.082031 0.011719 0.16016 0.027344 0.23438 0.046875z"/>
  </symbol>
 </defs>
 <g>
  <path d="m350.16 73.773h-0.38281c1.8047 1.8047 3.6641 3.6641 5.4688 5.4688-1.8047 1.8047-3.6641 3.6641-5.4688 5.4688h0.38281c0.76563 0.054687 1.4766-0.10938 2.1328-0.49219 0.65625-0.21875 1.2578-0.60156 1.75-1.1484 0.54688-0.49219 0.92969-1.0938 1.1484-1.75 0.32813-0.65625 0.49219-1.3672 0.49219-2.1328-0.054688-0.49219-0.10938-0.98438-0.21875-1.4766-0.27344-0.92969-0.71094-1.75-1.4219-2.4062-1.0391-0.92969-2.4062-1.5312-3.8828-1.5312h-0.38281c-0.76562-0.054688-1.4766 0.10937-2.1328 0.49219-0.65625 0.21875-1.2578 0.60156-1.75 1.1484-0.98438 1.0938-1.5859 2.4062-1.5859 3.8828-0.054688 0.76562 0.10938 1.4766 0.49219 2.1328 0.21875 0.65625 0.60156 1.2578 1.1484 1.75 1.0391 0.98437 2.4062 1.6406 3.8828 1.5859h0.38281c0.76562 0.054687 1.4766-0.10938 2.1328-0.49219 0.65625-0.21875 1.2578-0.60156 1.75-1.1484 0.54688-0.49219 0.92969-1.0938 1.1484-1.75 0.32812-0.65625 0.49219-1.3672 0.49219-2.1328-0.054688-0.49219-0.10938-0.98438-0.21875-1.4766-0.27344-0.92969-0.71094-1.75-1.4219-2.4062-1.0938-0.98438-2.4609-1.5859-3.9375-1.5859z"/>
  <path d="m344.7 79.242 5.4688-5.4688h-0.38281v10.938h0.38281c0.76563 0.054687 1.4766-0.10938 2.1328-0.49219 0.65625-0.21875 1.2578-0.60156 1.75-1.1484 0.54688-0.49219 0.92969-1.0938 1.1484-1.75 0.32813-0.65625 0.49219-1.3672 0.49219-2.1328-0.054688-0.49219-0.10938-0.98438-0.21875-1.4766-0.27344-0.92969-0.71094-1.75-1.4219-2.4062-1.0938-0.98438-2.4062-1.5859-3.8828-1.5859h-0.38281c-0.76562-0.054688-1.4766 0.10938-2.1328 0.49219-0.65625 0.21875-1.2578 0.60156-1.75 1.1484-0.54688 0.49219-0.92969 1.0938-1.1484 1.75-0.32812 0.65625-0.49219 1.3672-0.49219 2.1328 0.054688 0.49219 0.10938 0.98437 0.21875 1.4766 0.27344 0.92969 0.71094 1.75 1.4219 2.4062 1.0938 0.98438 2.4062 1.5859 3.8828 1.5859h0.38281c0.76563 0.054687 1.4766-0.10938 2.1328-0.49219 0.65625-0.21875 1.2578-0.60156 1.75-1.1484 0.98438-1.0938 1.5859-2.4062 1.5859-3.8828 0.054688-0.76562-0.10937-1.4766-0.49219-2.1328-0.21875-0.65625-0.60156-1.2578-1.1484-1.75-0.49219-0.54688-1.0938-0.92969-1.75-1.1484-0.65625-0.32812-1.3672-0.49219-2.1328-0.49219-0.49219 0.054688-0.98438 0.10938-1.4766 0.21875-0.92969 0.27344-1.75 0.71094-2.4062 1.4219-0.875 1.1484-1.5312 2.4609-1.5312 3.9375z"/>
  <path d="m551.63 362.69h-10.773-29.312-43.367-52.883-58.242-58.516-54.578-46.102-33.141c-5.25 0-10.5-0.054688-15.75 0h-0.65625v54.688c13.727-0.10938 28.492-3.7188 39.758-11.922 10.938-7.9297 19.906-17.664 26.195-29.75 10.391-19.961 14.656-41.836 16.57-64.094 0.65625-7.3828 0.71094-14.766 0.71094-22.203v-51.078c0-13.836-0.49219-27.781 0.10938-41.562 0.16406-3.6641 0.49219-7.3281 0.98438-10.992-0.32812 2.4062-0.65625 4.8672-0.98438 7.2734 1.4766-10.609 4.375-21 8.5312-30.844-0.92969 2.1875-1.8594 4.375-2.7344 6.5078 4.4844-10.5 10.336-20.398 17.281-29.477-1.4219 1.8594-2.8438 3.6641-4.2656 5.5234 7.8203-10.117 16.953-19.195 27.07-27.07-1.8594 1.4219-3.6641 2.8438-5.5234 4.2656 10.664-8.2031 22.312-15.039 34.727-20.289-2.1875 0.92969-4.375 1.8594-6.5078 2.7344 12.25-5.1406 25.102-8.75 38.227-10.555-2.4062 0.32812-4.8672 0.65625-7.2734 0.98438 12.469-1.6953 25.047-1.6953 37.516 0-2.4062-0.32812-4.8672-0.65625-7.2734-0.98438 13.18 1.8047 25.977 5.4141 38.227 10.555-2.1875-0.92969-4.375-1.8594-6.5078-2.7344 12.414 5.25 24.062 12.086 34.727 20.289-1.8594-1.4219-3.6641-2.8438-5.5234-4.2656 10.117 7.875 19.25 16.898 27.07 27.07-1.4219-1.8594-2.8438-3.6641-4.2656-5.5234 6.9453 9.0781 12.797 18.922 17.281 29.477-0.92969-2.1875-1.8594-4.375-2.7344-6.5078 4.1562 9.8984 7.0547 20.234 8.5312 30.844-0.32812-2.4062-0.65625-4.8672-0.98438-7.2734 1.9688 14.656 1.0938 29.859 1.0938 44.625v55.016c0 6.8359 0.10938 13.617 0.71094 20.398 0.875 10.172 2.2422 20.398 4.2656 30.461 2.2969 11.43 6.0156 22.148 10.664 32.812 4.4297 10.281 10.773 20.125 18.812 28 4.5938 4.5391 9.9531 8.75 15.695 11.812 5.9062 3.1172 12.414 5.7969 19.031 6.8906 4.6484 0.76563 9.3516 1.4766 14.055 1.5312 6.9453 0.054688 14.438-3.1172 19.359-7.9844 4.7578-4.7578 8.3125-12.523 7.9844-19.359-0.60156-14.875-11.922-27.125-27.289-27.289-1.9141 0-3.8828-0.16406-5.7969-0.38281 2.4062 0.32812 4.8672 0.65625 7.2734 0.98437-3.5547-0.49219-7-1.4219-10.336-2.7891 2.1875 0.92969 4.375 1.8594 6.5078 2.7344-3.2812-1.4219-6.3438-3.2266-9.1875-5.3594 1.8594 1.4219 3.6641 2.8438 5.5234 4.2656-3.4453-2.6797-6.4531-5.8516-9.1328-9.2969 1.4219 1.8594 2.8438 3.6641 4.2656 5.5234-4.0469-5.3047-7.1641-11.156-9.7891-17.281 0.92969 2.1875 1.8594 4.375 2.7344 6.5078-5.1406-12.305-8.0938-25.484-9.8438-38.664 0.32813 2.4062 0.65625 4.8672 0.98438 7.2734-1.2031-9.0781-1.8594-18.156-1.8594-27.289v-58.188c0-20.508 0.71094-40.852-3.6094-61.031-1.8594-8.75-4.8672-17.008-8.3672-25.266-3.4453-8.2031-7.3281-16.133-12.195-23.57-9.8438-15.148-21.93-29.039-36.039-40.305-7.875-6.2891-15.914-12.25-24.664-17.281-8.8594-5.1406-18.266-9.2969-27.836-13.016-17.117-6.6719-35.547-10.172-53.867-11.102-7.9297-0.38281-15.914-0.054688-23.789 0.92969-10.172 1.2578-20.234 2.8438-30.133 5.7422-17.391 5.0859-34.453 12.797-49.547 22.859-31.938 21.383-56.93 51.734-69.07 88.43-4.8125 14.492-7.0547 30.078-7.0547 45.336v19.469 62.398c0 8.1484 0.10937 16.242-0.4375 24.391-0.27344 4.1562-0.71094 8.2578-1.2578 12.414 0.32812-2.4062 0.65625-4.8672 0.98438-7.2734-1.6406 11.867-4.2656 23.68-8.9688 34.781 0.92969-2.1875 1.8594-4.375 2.7344-6.5078-2.4609 5.7422-5.4141 11.211-9.1875 16.133 1.4219-1.8594 2.8438-3.6641 4.2656-5.5234-2.6797 3.4453-5.6875 6.5625-9.1328 9.2422 1.8594-1.4219 3.6641-2.8438 5.5234-4.2656-2.8984 2.1875-5.9609 3.9922-9.2969 5.4141 2.1875-0.92969 4.375-1.8594 6.5078-2.7344-3.5547 1.4766-7.2734 2.4609-11.102 3.0078 2.4062-0.32813 4.8672-0.65625 7.2734-0.98438-2.1875 0.27344-4.375 0.4375-6.5625 0.4375-7.0547 0.054688-14.328 3.0078-19.359 7.9844-4.7578 4.7578-8.3125 12.523-7.9844 19.359 0.32812 7.0547 2.625 14.383 7.9844 19.359 5.3594 4.9219 11.922 7.9844 19.359 7.9844h10.773 29.312 43.367 52.883 58.242 58.516 54.578 46.102 33.141c5.25 0 10.5 0.054688 15.75 0h0.65625c7 0 14.383-3.0625 19.359-7.9844 4.7578-4.7578 8.3125-12.523 7.9844-19.359-0.32812-7.0547-2.625-14.383-7.9844-19.359-5.1953-5.0312-11.758-8.1484-19.195-8.1484z"/>
  <path d="m380.52 447.4c-1.75 3.4453-3.7734 6.6719-6.125 9.7344 1.4219-1.8594 2.8438-3.6641 4.2656-5.5234-2.9531 3.7734-6.3438 7.1094-10.172 10.062 1.8594-1.4219 3.6641-2.8438 5.5234-4.2656-4.0469 3.0625-8.4219 5.5781-13.125 7.6016 2.1875-0.92969 4.375-1.8594 6.5078-2.7344-5.3594 2.1875-10.938 3.6641-16.68 4.4844 2.4062-0.32812 4.8672-0.65625 7.2734-0.98437-5.4688 0.65625-10.992 0.76562-16.461 0.054687 2.4062 0.32812 4.8672 0.65625 7.2734 0.98438-5.0859-0.76562-10.062-2.1328-14.82-4.1562 2.1875 0.92969 4.375 1.8594 6.5078 2.7344-4.9219-2.1328-9.5156-4.8672-13.781-8.1484 1.8594 1.4219 3.6641 2.8438 5.5234 4.2656-4.5938-3.6094-8.6953-7.7656-12.305-12.414 1.4219 1.8594 2.8438 3.6641 4.2656 5.5234-1.75-2.2969-3.3359-4.7031-4.8125-7.2188-3.5-5.9609-9.6797-10.719-16.352-12.578-6.5625-1.8047-15.258-0.98437-21.055 2.7344-5.8516 3.7734-10.992 9.3516-12.578 16.352-1.6406 7.1641-1.0391 14.602 2.7344 21.055 6.2344 10.664 14.438 19.797 24.172 27.344 9.7891 7.5469 20.891 13.562 33.031 16.297 13.617 3.1172 26.906 2.7891 40.523 0 6.4531-1.3125 12.414-3.8281 18.484-6.4531 3.9922-1.6953 7.7656-3.7734 11.32-6.2344 11.484-8.1484 21.492-18.266 27.891-30.953 3.3359-6.6172 4.7578-13.781 2.7344-21.055-1.75-6.3438-6.6719-13.234-12.578-16.352-6.3438-3.3359-14.055-5.0312-21.055-2.7344-6.3438 2.1328-12.961 6.2344-16.133 12.578z"/>
 </g>
</svg>
