<?xml version="1.0" encoding="UTF-8"?>
<svg width="700pt" height="700pt" version="1.1" viewBox="0 0 700 700" xmlns="http://www.w3.org/2000/svg" xmlns:xlink="http://www.w3.org/1999/xlink">
 <defs>
  <symbol id="u" overflow="visible">
   <path d="m20.844-1.25c-1.0742 0.5625-2.1953 0.98438-3.3594 1.2656-1.168 0.28125-2.3828 0.42188-3.6406 0.42188-3.7812 0-6.7773-1.0508-8.9844-3.1562-2.2109-2.1133-3.3125-4.9766-3.3125-8.5938 0-3.625 1.1016-6.4922 3.3125-8.6094 2.207-2.1133 5.2031-3.1719 8.9844-3.1719 1.2578 0 2.4727 0.14844 3.6406 0.4375 1.1641 0.28125 2.2852 0.69922 3.3594 1.25v4.7031c-1.0859-0.73828-2.1523-1.2812-3.2031-1.625-1.0547-0.34375-2.1641-0.51562-3.3281-0.51562-2.0859 0-3.7266 0.66797-4.9219 2-1.1992 1.3359-1.7969 3.1797-1.7969 5.5312 0 2.3359 0.59766 4.1719 1.7969 5.5156 1.1953 1.3359 2.8359 2 4.9219 2 1.1641 0 2.2734-0.17188 3.3281-0.51562 1.0508-0.34375 2.1172-0.88281 3.2031-1.625z"/>
  </symbol>
  <symbol id="d" overflow="visible">
   <path d="m15.25-12.375c-0.48047-0.22656-0.95312-0.39453-1.4219-0.5-0.46875-0.10156-0.94531-0.15625-1.4219-0.15625-1.3984 0-2.4766 0.44922-3.2344 1.3438-0.75 0.89844-1.125 2.1797-1.125 3.8438v7.8438h-5.4375v-17.016h5.4375v2.7969c0.69531-1.1133 1.5-1.9258 2.4062-2.4375 0.90625-0.50781 1.9922-0.76562 3.2656-0.76562 0.17578 0 0.36719 0.011719 0.57812 0.03125 0.21875 0.011719 0.53125 0.042969 0.9375 0.09375z"/>
  </symbol>
  <symbol id="a" overflow="visible">
   <path d="m19.594-8.5469v1.5469h-12.719c0.13281 1.2734 0.59766 2.2305 1.3906 2.875 0.78906 0.63672 1.8945 0.95312 3.3125 0.95312 1.1445 0 2.3164-0.16406 3.5156-0.5 1.1953-0.34375 2.4297-0.85938 3.7031-1.5469v4.1875c-1.293 0.49219-2.5859 0.85547-3.875 1.0938-1.2812 0.25-2.5625 0.375-3.8438 0.375-3.0859 0-5.4805-0.78125-7.1875-2.3438-1.6992-1.5625-2.5469-3.7539-2.5469-6.5781 0-2.7812 0.83203-4.9609 2.5-6.5469 1.6758-1.5938 3.9844-2.3906 6.9219-2.3906 2.6758 0 4.8164 0.80859 6.4219 2.4219 1.6016 1.6055 2.4062 3.7578 2.4062 6.4531zm-5.5938-1.8125c0-1.0312-0.30469-1.8633-0.90625-2.5-0.59375-0.63281-1.3828-0.95312-2.3594-0.95312-1.0547 0-1.9062 0.29688-2.5625 0.89062s-1.0703 1.4492-1.2344 2.5625z"/>
  </symbol>
  <symbol id="k" overflow="visible">
   <path d="m10.234-7.6562c-1.1367 0-1.9922 0.19531-2.5625 0.57812-0.5625 0.38672-0.84375 0.95312-0.84375 1.7031 0 0.6875 0.22656 1.2305 0.6875 1.625 0.45703 0.38672 1.0977 0.57812 1.9219 0.57812 1.0195 0 1.8789-0.36328 2.5781-1.0938 0.69531-0.73828 1.0469-1.6602 1.0469-2.7656v-0.625zm8.3125-2.0469v9.7031h-5.4844v-2.5156c-0.73047 1.0312-1.5547 1.7812-2.4688 2.25-0.90625 0.46875-2.0117 0.70312-3.3125 0.70312-1.7617 0-3.1953-0.50781-4.2969-1.5312-1.0938-1.0312-1.6406-2.3672-1.6406-4.0156 0-1.9883 0.67969-3.4453 2.0469-4.375 1.375-0.9375 3.5312-1.4062 6.4688-1.4062h3.2031v-0.42188c0-0.86328-0.33984-1.4922-1.0156-1.8906-0.67969-0.40625-1.7344-0.60938-3.1719-0.60938-1.168 0-2.2578 0.12109-3.2656 0.35938-1 0.23047-1.9297 0.57812-2.7812 1.0469v-4.1562c1.1641-0.28125 2.332-0.49219 3.5-0.64062 1.1758-0.14453 2.3516-0.21875 3.5312-0.21875 3.0703 0 5.2852 0.60547 6.6406 1.8125 1.3633 1.2109 2.0469 3.1797 2.0469 5.9062z"/>
  </symbol>
  <symbol id="c" overflow="visible">
   <path d="m8.5469-21.844v4.8281h5.6094v3.8906h-5.6094v7.2188c0 0.79297 0.15625 1.3281 0.46875 1.6094 0.32031 0.27344 0.94531 0.40625 1.875 0.40625h2.7969v3.8906h-4.6719c-2.1484 0-3.668-0.44531-4.5625-1.3438-0.89844-0.89453-1.3438-2.4141-1.3438-4.5625v-7.2188h-2.7031v-3.8906h2.7031v-4.8281z"/>
  </symbol>
  <symbol id="j" overflow="visible">
   <path d="m14.188-14.516v-9.125h5.4688v23.641h-5.4688v-2.4531c-0.75 1-1.5781 1.7344-2.4844 2.2031-0.89844 0.45703-1.9375 0.6875-3.125 0.6875-2.0938 0-3.8203-0.83203-5.1719-2.5-1.3438-1.6641-2.0156-3.8047-2.0156-6.4219 0-2.625 0.67188-4.7695 2.0156-6.4375 1.3516-1.6641 3.0781-2.5 5.1719-2.5 1.1758 0 2.2188 0.23438 3.125 0.70312s1.7344 1.2031 2.4844 2.2031zm-3.5781 11c1.1562 0 2.0391-0.42188 2.6562-1.2656 0.61328-0.85156 0.92188-2.0859 0.92188-3.7031 0-1.625-0.30859-2.8594-0.92188-3.7031-0.61719-0.85156-1.5-1.2812-2.6562-1.2812s-2.043 0.42969-2.6562 1.2812c-0.61719 0.84375-0.92188 2.0781-0.92188 3.7031 0 1.6172 0.30469 2.8516 0.92188 3.7031 0.61328 0.84375 1.5 1.2656 2.6562 1.2656z"/>
  </symbol>
  <symbol id="i" overflow="visible">
   <path d="m11.672-3.5156c1.1562 0 2.0391-0.42188 2.6562-1.2656 0.61328-0.85156 0.92188-2.0859 0.92188-3.7031 0-1.625-0.30859-2.8594-0.92188-3.7031-0.61719-0.85156-1.5-1.2812-2.6562-1.2812-1.168 0-2.0625 0.42969-2.6875 1.2812-0.625 0.85547-0.9375 2.0898-0.9375 3.7031 0 1.6055 0.3125 2.8359 0.9375 3.6875 0.625 0.85547 1.5195 1.2812 2.6875 1.2812zm-3.625-11c0.75-1 1.5781-1.7344 2.4844-2.2031 0.91406-0.46875 1.9688-0.70312 3.1562-0.70312 2.0938 0 3.8125 0.83594 5.1562 2.5 1.3516 1.668 2.0312 3.8125 2.0312 6.4375 0 2.6172-0.67969 4.7578-2.0312 6.4219-1.3438 1.668-3.0625 2.5-5.1562 2.5-1.1875 0-2.2422-0.23438-3.1562-0.70312-0.90625-0.46875-1.7344-1.1953-2.4844-2.1875v2.4531h-5.4375v-23.641h5.4375z"/>
  </symbol>
  <symbol id="h" overflow="visible">
   <path d="m0.375-17.016h5.4375l4.5781 11.547 3.8906-11.547h5.4375l-7.1562 18.625c-0.71875 1.8945-1.5586 3.2188-2.5156 3.9688-0.96094 0.75781-2.2188 1.1406-3.7812 1.1406h-3.1562v-3.5781h1.7031c0.92578 0 1.5977-0.14844 2.0156-0.4375 0.41406-0.29297 0.74219-0.82031 0.98438-1.5781l0.14062-0.46875z"/>
  </symbol>
  <symbol id="g" overflow="visible">
   <path d="m18.641-21.969v4.7969c-1.25-0.55078-2.4688-0.96875-3.6562-1.25-1.1797-0.28125-2.293-0.42188-3.3438-0.42188-1.3984 0-2.4336 0.19531-3.1094 0.57812-0.66797 0.375-1 0.96875-1 1.7812 0 0.61719 0.22266 1.0938 0.67188 1.4375 0.45703 0.33594 1.2734 0.62109 2.4531 0.85938l2.5 0.5c2.5195 0.51172 4.3125 1.2812 5.375 2.3125s1.5938 2.5 1.5938 4.4062c0 2.5-0.74609 4.3594-2.2344 5.5781-1.4805 1.2188-3.7422 1.8281-6.7812 1.8281-1.4375 0-2.8828-0.13672-4.3281-0.40625-1.4492-0.26953-2.8984-0.67578-4.3438-1.2188v-4.9375c1.4453 0.77344 2.8438 1.3555 4.1875 1.75 1.3516 0.38672 2.6602 0.57812 3.9219 0.57812 1.2695 0 2.2422-0.21094 2.9219-0.64062 0.67578-0.42578 1.0156-1.0352 1.0156-1.8281 0-0.70703-0.23047-1.25-0.6875-1.625-0.46094-0.38281-1.375-0.73438-2.75-1.0469l-2.2656-0.5c-2.2734-0.47656-3.9336-1.25-4.9844-2.3125-1.043-1.0703-1.5625-2.5078-1.5625-4.3125 0-2.25 0.72656-3.9844 2.1875-5.2031 1.457-1.2188 3.5508-1.8281 6.2812-1.8281 1.25 0 2.5312 0.09375 3.8438 0.28125 1.3203 0.1875 2.6875 0.46875 4.0938 0.84375z"/>
  </symbol>
  <symbol id="b" overflow="visible">
   <path d="m10.703-13.531c-1.1992 0-2.1172 0.43359-2.75 1.2969-0.63672 0.86719-0.95312 2.1172-0.95312 3.75 0 1.625 0.31641 2.8711 0.95312 3.7344 0.63281 0.86719 1.5508 1.2969 2.75 1.2969 1.1875 0 2.0938-0.42969 2.7188-1.2969 0.63281-0.86328 0.95312-2.1094 0.95312-3.7344 0-1.6328-0.32031-2.8828-0.95312-3.75-0.625-0.86328-1.5312-1.2969-2.7188-1.2969zm0-3.8906c2.9258 0 5.2109 0.79297 6.8594 2.375 1.6445 1.5742 2.4688 3.7617 2.4688 6.5625 0 2.793-0.82422 4.9805-2.4688 6.5625-1.6484 1.5742-3.9336 2.3594-6.8594 2.3594-2.9375 0-5.2344-0.78516-6.8906-2.3594-1.6484-1.582-2.4688-3.7695-2.4688-6.5625 0-2.8008 0.82031-4.9883 2.4688-6.5625 1.6562-1.582 3.9531-2.375 6.8906-2.375z"/>
  </symbol>
  <symbol id="t" overflow="visible">
   <path d="m2.6094-23.641h5.4375v12.875l6.2656-6.25h6.3125l-8.3125 7.8125 8.9688 9.2031h-6.5938l-6.6406-7.0938v7.0938h-5.4375z"/>
  </symbol>
  <symbol id="s" overflow="visible">
   <path d="m2.6094-17.016h5.4375v17.016h-5.4375zm0-6.625h5.4375v4.4375h-5.4375z"/>
  </symbol>
  <symbol id="f" overflow="visible">
   <path d="m16.359-16.484v4.4375c-0.74219-0.50781-1.4844-0.88281-2.2344-1.125-0.74219-0.23828-1.5117-0.35938-2.3125-0.35938-1.5117 0-2.6953 0.44531-3.5469 1.3281-0.84375 0.88672-1.2656 2.125-1.2656 3.7188 0 1.5859 0.42188 2.8203 1.2656 3.7031 0.85156 0.88672 2.0352 1.3281 3.5469 1.3281 0.85156 0 1.6602-0.125 2.4219-0.375 0.76953-0.25 1.4766-0.625 2.125-1.125v4.4531c-0.85547 0.3125-1.7188 0.54688-2.5938 0.70312s-1.75 0.23438-2.625 0.23438c-3.0742 0-5.4766-0.78516-7.2031-2.3594-1.7305-1.5703-2.5938-3.7578-2.5938-6.5625 0-2.8125 0.86328-5.0039 2.5938-6.5781 1.7266-1.5703 4.1289-2.3594 7.2031-2.3594 0.88281 0 1.7578 0.078125 2.625 0.23438 0.86328 0.15625 1.7266 0.39062 2.5938 0.70312z"/>
  </symbol>
  <symbol id="e" overflow="visible">
   <path d="m19.719-10.359v10.359h-5.4688v-7.9219c0-1.4688-0.039062-2.4766-0.10938-3.0312-0.0625-0.5625-0.17188-0.97656-0.32812-1.25-0.21875-0.35156-0.51172-0.62891-0.875-0.82812-0.36719-0.19531-0.77734-0.29688-1.2344-0.29688-1.1367 0-2.0312 0.44531-2.6875 1.3281-0.64844 0.875-0.96875 2.0859-0.96875 3.625v8.375h-5.4375v-17.016h5.4375v2.5c0.82031-1 1.6914-1.7344 2.6094-2.2031 0.92578-0.46875 1.9453-0.70312 3.0625-0.70312 1.957 0 3.4453 0.60547 4.4688 1.8125 1.0195 1.1992 1.5312 2.9492 1.5312 5.25z"/>
  </symbol>
  <symbol id="r" overflow="visible">
   <path d="m13.812-23.641v3.5781h-3.0156c-0.77344 0-1.3086 0.14062-1.6094 0.42188-0.30469 0.27344-0.45312 0.75-0.45312 1.4375v1.1875h4.6406v3.8906h-4.6406v13.125h-5.4375v-13.125h-2.7031v-3.8906h2.7031v-1.1875c0-1.8516 0.51562-3.2227 1.5469-4.1094 1.0312-0.88281 2.6289-1.3281 4.7969-1.3281z"/>
  </symbol>
  <symbol id="q" overflow="visible">
   <path d="m18.375-14.188c0.6875-1.0508 1.5039-1.8516 2.4531-2.4062 0.94531-0.55078 1.9883-0.82812 3.125-0.82812 1.957 0 3.4453 0.60547 4.4688 1.8125 1.0195 1.1992 1.5312 2.9492 1.5312 5.25v10.359h-5.4688v-8.875c0.007813-0.125 0.015625-0.25781 0.015625-0.40625 0.007812-0.14453 0.015625-0.34766 0.015625-0.60938 0-1.207-0.17969-2.082-0.53125-2.625-0.35547-0.53906-0.92969-0.8125-1.7188-0.8125-1.0312 0-1.8281 0.42969-2.3906 1.2812-0.5625 0.85547-0.85547 2.0859-0.875 3.6875v8.3594h-5.4688v-8.875c0-1.8828-0.16406-3.0977-0.48438-3.6406-0.32422-0.53906-0.90234-0.8125-1.7344-0.8125-1.043 0-1.8516 0.43359-2.4219 1.2969-0.5625 0.85547-0.84375 2.0742-0.84375 3.6562v8.375h-5.4688v-17.016h5.4688v2.5c0.66406-0.96875 1.4297-1.6914 2.2969-2.1719 0.875-0.48828 1.832-0.73438 2.875-0.73438 1.1758 0 2.2109 0.28906 3.1094 0.85938 0.90625 0.5625 1.5859 1.3555 2.0469 2.375z"/>
  </symbol>
  <symbol id="p" overflow="visible">
   <path d="m19.719-10.359v10.359h-5.4688v-7.9062c0-1.4766-0.039062-2.4922-0.10938-3.0469-0.0625-0.5625-0.17188-0.97656-0.32812-1.25-0.21875-0.35156-0.51172-0.62891-0.875-0.82812-0.36719-0.19531-0.77734-0.29688-1.2344-0.29688-1.1367 0-2.0312 0.44531-2.6875 1.3281-0.64844 0.875-0.96875 2.0859-0.96875 3.625v8.375h-5.4375v-23.641h5.4375v9.125c0.82031-1 1.6914-1.7344 2.6094-2.2031 0.92578-0.46875 1.9453-0.70312 3.0625-0.70312 1.957 0 3.4453 0.60547 4.4688 1.8125 1.0195 1.1992 1.5312 2.9492 1.5312 5.25z"/>
  </symbol>
  <symbol id="o" overflow="visible">
   <path d="m2.8594-22.672h6.5312l8.25 15.547v-15.547h5.5469v22.672h-6.5469l-8.2344-15.562v15.562h-5.5469z"/>
  </symbol>
  <symbol id="n" overflow="visible">
   <path d="m2.4375-6.625v-10.391h5.4688v1.7031c0 0.92969-0.007812 2.0898-0.015625 3.4844-0.011719 1.3867-0.015625 2.3125-0.015625 2.7812 0 1.3672 0.03125 2.3516 0.09375 2.9531 0.070312 0.60547 0.19531 1.043 0.375 1.3125 0.21875 0.35547 0.50391 0.63281 0.85938 0.82812 0.36328 0.1875 0.78125 0.28125 1.25 0.28125 1.1328 0 2.0234-0.42969 2.6719-1.2969 0.64453-0.875 0.96875-2.0859 0.96875-3.6406v-8.4062h5.4375v17.016h-5.4375v-2.4531c-0.82422 0.99219-1.6953 1.7188-2.6094 2.1875-0.91797 0.46875-1.9297 0.70312-3.0312 0.70312-1.9609 0-3.4531-0.59766-4.4844-1.7969-1.0234-1.207-1.5312-2.9609-1.5312-5.2656z"/>
  </symbol>
  <symbol id="m" overflow="visible">
   <path d="m2.8594-22.672h9.7031c2.8828 0 5.0977 0.64062 6.6406 1.9219 1.5508 1.2812 2.3281 3.1055 2.3281 5.4688 0 2.375-0.77734 4.2031-2.3281 5.4844-1.543 1.2812-3.7578 1.9219-6.6406 1.9219h-3.8594v7.875h-5.8438zm5.8438 4.2344v6.3281h3.2344c1.1328 0 2.0078-0.27344 2.625-0.82812 0.625-0.55078 0.9375-1.332 0.9375-2.3438 0-1.0078-0.3125-1.7852-0.9375-2.3281-0.61719-0.55078-1.4922-0.82812-2.625-0.82812z"/>
  </symbol>
  <symbol id="l" overflow="visible">
   <path d="m2.6094-17.016h5.4375v16.719c0 2.2695-0.54688 4.0039-1.6406 5.2031-1.0938 1.207-2.6797 1.8125-4.75 1.8125h-2.6875v-3.5781h0.9375c1.0312 0 1.7383-0.23438 2.125-0.70312 0.38281-0.46094 0.57812-1.3711 0.57812-2.7344zm0-6.625h5.4375v4.4375h-5.4375z"/>
  </symbol>
 </defs>
 <g>
  <path d="m342.01 339.02 21.391-21.41 7.0391 7.0352-21.391 21.41z"/>
  <path d="m331.16 313.52 21.402-21.406 7.0391 7.0391-21.402 21.406z"/>
  <path d="m350.31 271.7c-26.223 0-47.559 21.227-47.559 47.316 0 26.172 21.336 47.461 47.559 47.461 26.145 0 47.41-21.293 47.41-47.461 0-26.094-21.27-47.316-47.41-47.316zm0 84.824c-20.734 0-37.605-16.824-37.605-37.508 0-20.598 16.871-37.363 37.605-37.363 20.656 0 37.457 16.766 37.457 37.363 0 20.684-16.801 37.508-37.457 37.508z"/>
  <path d="m480.2 349.56c-0.75391-1.8828-2.5781-3.125-4.6055-3.125h-0.011718c-2.0312 0-3.8516 1.2266-4.6133 3.1055-4.6797 11.551-8.1328 25.48-10.684 39.633l-40.145-30.801c1.0039-8.3477 2.0312-17.086 3.0859-26.27 3.0586-26.828 2.1484-54.043-1.207-80.457-0.003907-0.17969 0.066406-0.34766 0.046874-0.52734-2.6445-20.633-6.8672-41.738-12.547-62.738 0-0.007812-0.007813-0.011718-0.007813-0.019531-5.5273-20.617-12.426-41.664-20.504-62.547-0.11719-0.30469-0.30469-0.55859-0.47266-0.82422-16.984-43.574-33.559-72.406-33.93-73.047-1.7812-3.0625-6.8164-3.0625-8.5977 0-0.375 0.64063-16.941 29.461-33.922 73.027-0.16797 0.26562-0.35547 0.51562-0.47266 0.8125-8.0469 20.391-15 41.453-20.672 62.609v0.007813c0 0.003906-0.003906 0.007812-0.003906 0.011718-5.6445 21.43-9.8125 42.527-12.395 62.707-0.023437 0.18359 0.046875 0.35547 0.046875 0.53906-3.3516 26.41-4.2656 53.621-1.207 80.445 1.0391 9.0977 2.0547 17.652 3.0508 25.961l-40.633 31.176c-2.543-14.188-5.9688-28.16-10.59-39.68-0.75781-1.8828-2.582-3.125-4.6133-3.125h-0.007812c-2.0273 0-3.8516 1.2266-4.6133 3.1055-14.152 34.926-17.25 91.578-17.25 110.46 0 12.039 9.8086 21.828 21.863 21.828s21.863-9.7891 21.863-21.828c0-1.9219-0.046875-4.4062-0.13281-7.2227l46.32-6.582c0.21875 1.2734 0.44531 2.668 0.66016 3.875 0.42187 2.375 2.4883 4.1094 4.9023 4.1094h0.36328v11.438c0 2.7461 2.2266 4.9766 4.9766 4.9766h25.367c-0.32812 6.5273-0.46875 12.039-0.46875 15.906 0 11.957 9.8086 21.68 21.867 21.68 12.051 0 21.859-9.7227 21.859-21.68 0-3.6875-0.15234-9.2344-0.50391-15.906h25.262c2.7461 0 4.9766-2.2305 4.9766-4.9766v-11.438h0.36328c2.3984 0 4.4609-1.7148 4.8984-4.0703 0.23047-1.2383 0.46094-2.5469 0.69531-3.8672l45.988 6.5352c-0.078124 2.7539-0.12109 5.2383-0.12109 7.2227 0 12.039 9.8086 21.828 21.863 21.828s21.863-9.7891 21.863-21.828c-0.007812-17.488-3.1719-75.316-17.254-110.44zm-70.602 10.086-11.258 80.219c-0.10156 0.71094-0.03125 1.3984 0.15234 2.0469-0.12891 0.74219-0.26172 1.5898-0.39062 2.3086h-28.559c-0.23438-2.1758-0.47656-4.3672-0.74609-6.6016-1.0938-9.1758-2.7383-20.156-5.0781-31.258-0.085937-0.41406-0.17188-0.82812-0.25781-1.2422-0.44922-2.0898-0.92969-4.1562-1.4336-6.2344-0.20312-0.83203-0.40625-1.6562-0.61719-2.4766-0.45312-1.7852-0.91797-3.5469-1.4141-5.3047-0.33984-1.2109-0.70312-2.3828-1.0625-3.5625-0.42969-1.4062-0.84766-2.8164-1.3047-4.1875-0.85547-2.5664-1.75-5.0664-2.7031-7.4414 0-0.003906-0.003907-0.003906-0.003907-0.007812v-0.003906c-0.042969-0.10938-0.125-0.19141-0.17578-0.29688-0.16797-0.34375-0.34375-0.6875-0.57812-0.98047-0.019531-0.023438-0.046875-0.039062-0.066406-0.0625-0.92969-1.0977-2.2969-1.7695-3.7812-1.7695h-0.007813c-2.0273 0-3.8516 1.2266-4.6133 3.1055-1.0352 2.5586-1.9961 5.2617-2.918 8.0312-0.12109 0.36719-0.23438 0.74609-0.35156 1.1172-0.83594 2.5781-1.6211 5.2227-2.3672 7.9336-0.015625 0.058593-0.03125 0.11328-0.046875 0.17188-4.4453 16.27-7.2969 34.582-9.043 51.07h-28.582c-0.19531-1.1406-0.39844-2.4453-0.59766-3.6406 0-0.24219 0.078125-0.46875 0.042969-0.71875l-2.2578-16.086h21.387v-9.9531h-22.785l-1.8984-13.539 14.824 0.007813v-9.9531h-16.23l-1.8984-13.543h10.352v-9.9531h-11.746l-0.48438-3.4375c-1.2422-10.203-2.5195-20.965-3.8281-32.43-2.8164-24.707-2.2031-49.793 0.65234-74.246h124.77c0.27734 2.3828 0.50781 4.7734 0.74219 7.168h-22.703v9.9531h23.535c0.32031 4.5039 0.57422 9.0156 0.71875 13.539h-14.402v9.9531h14.562c0.007812 4.5156-0.078126 9.0312-0.26953 13.543h-6.5078v9.9531h5.9258c-0.25781 3.3828-0.57031 6.7617-0.95703 10.137-1.1094 9.6836-2.1836 18.75-3.2383 27.496-0.16797 0.39453-0.4375 0.74219-0.5 1.1758zm-54.316-227.06h25.574c4.0234 10.523 8.0391 21.863 11.836 33.836l0.375 1.1719c0.82422 2.6172 1.6367 5.2734 2.4336 7.9492 0.28516 0.95312 0.55859 1.9023 0.83984 2.8555 0.61328 2.0898 1.2188 4.1875 1.8164 6.3047h-42.875zm56.117 114.19h-56.117v-52.117h45.566c2.5859 9.9531 4.9453 20.199 6.9648 30.66 0.007813 0.042969 0.015625 0.085938 0.023438 0.12891 1.3516 7.0234 2.543 14.145 3.5625 21.328zm-66.07-62.07h-42.859c5.2695-18.785 11.277-36.367 17.297-52.117h25.562zm-45.555 9.9531h45.551v52.117h-56.109c2.5469-17.934 6.2227-35.438 10.559-52.117zm50.531-129.85c5.5781 10.512 15.871 31.016 26.641 57.824h-53.27c10.762-26.805 21.051-47.309 26.629-57.824zm-125.71 407.06c-6.457 0-11.91-5.4375-11.91-11.875 0-14.941 2.3164-59.816 11.895-93.113 2.8711 10.02 5.082 21.039 6.7812 31.969 0.003906 0.039062-0.003906 0.074219 0 0.11328 3.2422 21.176 4.4336 40.25 4.8555 49.73 0 0.007812 0.003906 0.015625 0.007812 0.023437 0.19531 4.6328 0.28125 8.4844 0.28125 11.277 0 6.4375-5.457 11.875-11.91 11.875zm21.289-29.09c-0.019531-0.36719-0.050781-0.79297-0.070312-1.1719-0.046875-0.82422-0.097656-1.6523-0.15234-2.5078-0.035156-0.5625-0.078125-1.168-0.12109-1.7578-0.16406-2.4258-0.35547-4.9531-0.57031-7.5781-0.015625-0.16406-0.027344-0.32031-0.039062-0.48438-0.54297-6.4766-1.2578-13.445-2.1758-20.66-0.14844-1.168-0.30078-2.3398-0.46094-3.5273-0.125-0.92578-0.25-1.8438-0.38281-2.7734-0.09375-0.65234-0.17188-1.2891-0.26953-1.9492l40.184-30.832c3.3281 27.012 6.3984 49.27 9.1953 66.82zm62.637 17.855v-6.4609h21.504c-0.1875 2.2109-0.35938 4.3711-0.50781 6.4609zm41.789 37.586c-6.5703 0-11.914-5.2617-11.914-11.727 0-5.0781 0.27734-13.656 1.0039-24.016l0.035156-0.4375c0.32422-3.918 0.67578-8.0938 1.1016-12.348 0-0.007813-0.003906-0.011719 0-0.019531 0-0.007813 0.003906-0.011719 0.003906-0.019532 1.2461-13.465 4.0469-36.43 9.7617-56.383 0.41016 1.4336 0.78906 2.9102 1.1719 4.3828 0.19531 0.74609 0.40234 1.4805 0.58984 2.2305 0.35938 1.4375 0.69141 2.9062 1.0273 4.3711 0.21875 0.95312 0.44141 1.9023 0.64844 2.8594 0.28906 1.3438 0.56641 2.6992 0.83984 4.0547 0.23047 1.1523 0.46094 2.3047 0.67578 3.4531 0.21484 1.1406 0.42188 2.2852 0.625 3.4297 0.26562 1.5078 0.52344 3.0078 0.76172 4.4883 0.12109 0.74219 0.24219 1.4844 0.35938 2.2227 1.4883 9.5742 2.4688 18.359 3.0742 24.891 0 0.007813 0.007812 0.015625 0.007812 0.027344v0.011719c0.57031 5.6875 0.99609 11.23 1.2812 16.199 0.007813 0.14062 0.082031 0.26172 0.10156 0.39844 0.54297 8.6484 0.75391 15.77 0.75391 20.199-0.003906 6.4688-5.3477 11.73-11.91 11.73zm41.637-37.586h-20.91c-0.15234-2.0859-0.33203-4.25-0.52344-6.4609h21.43zm17.574-24.219c2.7773-17.09 5.8633-39.332 9.2305-66.57l39.719 30.469c-2.2969 15.547-3.5742 30.613-4.2031 42.461zm66.066 35.453c-6.4531 0-11.91-5.4375-11.91-11.875 0-2.8047 0.082031-6.6602 0.27734-11.293 0-0.003906 0.003906-0.007812 0.003906-0.011719 0.42578-9.4727 1.6172-28.527 4.8594-49.73 0.015625-0.10938-0.003906-0.21875 0.003906-0.32812 1.6953-10.879 3.8906-21.828 6.7461-31.746 9.6055 33.512 11.93 78.25 11.93 93.109 0 6.4375-5.457 11.875-11.91 11.875z"/>
</g>
</svg>
