<?xml version="1.0" encoding="UTF-8"?>
<svg width="700pt" height="700pt" version="1.1" viewBox="0 0 700 700" xmlns="http://www.w3.org/2000/svg">
 <g>
  <path d="m364.95 228.65c7.1133 2.0703 12.824 7.5586 15.176 14.672 0.67188 2.2969 2.9688 3.6406 5.2617 2.9102 1.3984-0.39062 2.5195-1.5117 2.9688-2.9102 2.1836-7.2227 7.7852-12.824 15.008-15.121 1.793-0.50391 3.1367-2.2383 3.0234-4.1992 0.11328-1.9609-1.1758-3.6953-3.0781-4.3125-7.1133-2.0703-12.77-7.5039-15.176-14.617-0.67188-2.293-2.9688-3.582-5.2656-2.9102-1.3984 0.39062-2.5195 1.5117-2.9688 2.9102-2.1836 7.2266-7.8398 12.824-14.949 15.008-1.9062 0.5625-3.1914 2.3555-3.082 4.3125-0.10938 1.9609 1.1758 3.6992 3.082 4.2578zm18.984-12.602c2.1836 3.1914 4.9297 5.9375 8.1211 8.1758-3.1953 2.1836-5.8828 4.9297-8.0117 8.1211h-0.22266c-2.1836-3.1914-4.8711-5.9922-8.0625-8.1211 3.3008-2.1836 5.9922-4.9258 8.1758-8.1758z"/>
  <path d="m387.13 124.88c7.2227 2.1289 12.879 7.6172 15.176 14.727 0.67187 2.2969 3.0781 3.5859 5.375 2.9141 1.2891-0.44922 2.4062-1.5117 2.8555-2.9102 2.1836-7.2227 7.8945-12.879 15.121-15.121 1.8477-0.55859 3.0781-2.3516 2.9688-4.2578 0.11328-1.9609-1.1211-3.6953-2.9688-4.3125-7.2227-2.0156-12.938-7.5039-15.23-14.559-0.67188-2.2969-3.082-3.6406-5.3789-2.9688-1.3984 0.44922-2.5195 1.5117-2.9102 2.9688-2.1836 7.168-7.7852 12.77-15.008 15.008-1.8477 0.5625-3.082 2.3516-2.9688 4.2578-0.11328 1.9609 1.1211 3.6953 2.9688 4.2539zm19.039-12.543c2.1836 3.1914 5.0391 5.9375 8.1758 8.1211-3.1367 2.1836-5.8789 4.9844-8.0625 8.1172h-0.22656c-2.0703-3.1328-4.8164-5.9336-8.0078-8.1172 3.1914-2.1836 5.9375-4.9297 8.1211-8.1211z"/>
  <path d="m123.76 124.88c7.2227 2.1289 12.879 7.6172 15.176 14.727 0.67188 2.2969 3.0781 3.5859 5.2656 2.9102 1.4531-0.38672 2.5156-1.5078 2.9648-2.9062 2.1836-7.2227 7.8945-12.879 15.121-15.121 1.8477-0.55859 3.0234-2.2969 2.9102-4.2578 0.11328-1.9609-1.1211-3.6953-2.9688-4.3125-7.168-2.0156-12.879-7.5039-15.176-14.559-0.67188-2.2969-3.0781-3.6406-5.375-2.9688-1.3984 0.44922-2.5195 1.5117-2.9102 2.9688-2.2422 7.168-7.7852 12.77-15.008 15.008-1.8516 0.5625-3.082 2.3516-2.9688 4.2578-0.11328 1.9609 1.1172 3.6953 2.9688 4.2539zm19.039-12.543c2.1836 3.1914 5.0391 5.9375 8.1758 8.1211-3.1367 2.1836-5.8789 4.9844-8.0664 8.1172h-0.22266c-2.0703-3.1328-4.8164-5.9336-8.0078-8.1172 3.1914-2.1836 5.9375-4.9297 8.1211-8.1211z"/>
  <path d="m515.87 142.07c11.816 3.6406 21.113 12.824 24.695 24.641 0.67188 2.2969 2.9688 3.6406 5.2656 2.9688 1.3984-0.44922 2.5195-1.5117 2.9688-2.9102 3.5859-11.762 12.824-21 24.586-24.641 1.7344-0.55859 3.0781-2.1836 3.0781-4.0898 0.10938-1.9609-1.2344-3.75-3.082-4.3125-11.816-3.6367-21-12.879-24.582-24.637-0.55859-1.7344-2.1836-2.9688-3.9219-3.0234-2.0156-0.11328-3.75 1.1719-4.3125 3.0234-3.6953 11.762-12.879 21-24.695 24.586-1.8477 0.61328-3.0781 2.4023-2.9688 4.3086 0 1.9023 1.2344 3.5273 2.9688 4.0859zm28.953-21.055c4.0859 7 9.8555 12.77 16.855 16.801-7 4.0312-12.824 9.8008-16.855 16.801-4.0312-7-9.8555-12.77-16.855-16.801 7.0547-4.0312 12.824-9.8008 16.855-16.801z"/>
  <path d="m613.09 371.95c-7.6172-17.863-21-32.648-37.914-42.113v-87.922c0-1.457-0.67188-2.7422-1.8477-3.5859-1.2305-0.78125-2.8008-0.94922-4.0898-0.38672l-71.848 29.957c-1.625 0.67188-2.6328 2.2383-2.6328 3.9766v37.016h-0.89453-40.039l14-45.641h20.105l-7.9531 27.051c-0.61719 2.2383 0.67188 4.5898 2.8555 5.2617 2.1836 0.61719 4.3672-0.55859 5.1523-2.6875l9.6328-32.48c0.67187-2.2969-0.67188-4.6484-2.9688-5.3203-0.44922-0.16797-0.89453-0.22266-1.2891-0.16797h-28.672c-1.9609-0.10938-3.75 1.1211-4.2539 3.0273l-12.043 39.422c-0.33594-0.11328-0.78516-0.16797-1.1211-0.16797h-247.8v-34.945c0-1.3984-0.67188-2.7422-1.8477-3.5273-1.1758-0.78125-2.8008-0.94922-4.0898-0.44531l-52.473 21.895c-1.625 0.67188-2.6328 2.2383-2.7422 3.9219v39.93c-23.184 8.2266-41.887 25.867-51.41 48.66-1.0078 2.1836 0.11328 4.6484 2.1836 5.6016 0.55859 0.16797 1.1758 0.33594 1.7344 0.33594 1.625 0 3.3047-1.0078 3.9219-2.5742 12.266-29.402 41.051-48.5 72.859-48.5 31.527 0 59.922 18.703 72.52 47.656 0.89453 2.1836 3.4141 3.1914 5.6016 2.2383 2.1836-0.95312 3.1914-3.4727 2.2969-5.6562-3.8672-8.7891-9.0742-16.797-15.348-23.797h69.328c2.4062 0 4.2578-1.9023 4.2578-4.2578 0-2.3516-1.8477-4.3125-4.2578-4.3125h-77.391c-0.22266 0-0.44922 0.054688-0.78516 0.054688-7.2227-5.9883-15.398-10.973-24.359-14.445v-19.262h246.29l-9.1875 30.184h-89.148c-2.2969 0-4.2578 1.9609-4.2578 4.3125v25.648c0 2.3516 1.9609 4.3125 4.2578 4.3125h22.398v28.727h-147.28c-2.2969-30.352-28.895-53.09-59.191-50.68-30.406 2.3516-53.031 28.84-50.734 59.246 1.6211 19.824 13.664 37.297 31.695 45.695h-23.855c-2.4062 0-4.2578 1.9023-4.2578 4.2578 0 2.3516 1.8477 4.3125 4.2578 4.3125h126.22c2.4062 0 4.2578-1.9023 4.2578-4.3125 0-2.3516-1.8477-4.2578-4.2578-4.2578h-55.664c18.031-8.3984 30.07-25.871 31.695-45.695h254.18c1.5703 19.77 13.609 37.184 31.531 45.695h-40.266c-2.4062 0-4.2578 1.9023-4.2578 4.2578 0 2.3516 1.8477 4.3125 4.2578 4.3125h110.71c2.4062 0 4.3672-1.9023 4.3672-4.3125 0-2.3516-1.9609-4.2578-4.3672-4.2578h-23.855c27.551-12.824 39.594-45.582 26.824-73.191-8.9609-19.488-28.559-31.977-50.008-31.977-28.785 0.054688-52.695 22.176-54.879 50.902h-98.559l-0.003906-34.324c0-2.3516-1.9609-4.2578-4.2578-4.2578-1.1758 0-2.2969 0.50391-3.0781 1.2891h-19.262v-17.137h81.48c-0.11328 0.11328-0.11328 0.28125-0.11328 0.44922 0 2.3516 1.9609 4.3125 4.2578 4.3125h29.398c-6.1602 6.9414-11.199 14.84-14.84 23.406-1.0078 2.1836 0.11328 4.6484 2.1836 5.6016 0.55859 0.16797 1.1211 0.33594 1.7344 0.33594 1.625 0 3.3047-1.0078 3.9219-2.5742 17.023-40.266 63.391-59.082 103.54-42.113 18.816 7.9531 33.824 22.734 41.777 41.441 1.0078 2.1836 3.5273 3.1914 5.7109 2.2383 2.1289-0.95312 3.1367-3.5312 2.2422-5.6562zm-422.19-49.785c-7.6719-2.1289-15.398-3.1914-23.293-3.1914-7 0-13.887 0.83984-20.664 2.4648v-34.441l43.961-18.312zm23.297 81.031c0 25.703-20.887 46.535-46.594 46.594-25.703 0.054687-46.59-20.832-46.59-46.594 0-25.703 20.777-46.648 46.594-46.648 25.703 0 46.59 20.832 46.59 46.648v0zm317.52-46.648c25.816 0 46.594 20.887 46.594 46.648 0 25.703-20.777 46.535-46.48 46.594h-0.11328c-25.703 0-46.594-20.887-46.594-46.594 0.003906-25.703 20.891-46.648 46.594-46.648zm-36.957-28.559c-7.2266 3.4141-13.891 7.8945-19.938 13.16-0.61719-0.33594-1.2891-0.50391-1.9609-0.50391h-28.727l7.1133-23.184h42.672 0.89453v10.527zm71.848-56.617h-43.289c-2.4062 0-4.2578 1.9023-4.2578 4.3125 0 2.3516 1.8477 4.2578 4.2578 4.2578h43.176v15.062h-15.121c-2.4062 0-4.3672 1.9023-4.3672 4.3125 0 2.3516 1.9609 4.3125 4.2578 4.3125h0.11328 15.121v22.457c-20.109-8.625-42.676-9.2422-63.34-1.8516l0.11328-0.11328v-49.445l63.336-26.266z"/>
  <path d="m204.57 233.46c11.48 5.375 23.969 8.1758 36.625 8.1758 18.48-0.11328 36.398-6.1055 51.406-17.137v57.625c-0.054687 2.3516 1.9062 4.2539 4.3125 4.2539h0.22266 85.121c2.2969 0 4.2578-1.9609 4.2578-4.3125 0-2.3516-1.9609-4.3125-4.2578-4.3125l-80.75 0.003907v-60.48l1.1758-1.0078c25.594-25.762 32.48-64.902 17.078-97.887-0.55859-1.2344-1.7344-2.1289-3.0781-2.4102-1.3984-0.28125-2.8555 0.22266-3.8086 1.1758l-51.07 50.961-24.078-24.137c3.5859-6.0469 1.625-14-4.3672-17.641-6.1055-3.6406-14-1.6797-17.695 4.4258-1.2344 2.1836-1.9062 4.5898-1.7969 7.1094 0 7.0547 5.7109 12.824 12.824 12.824 1.625 0 3.1914-0.33594 4.7031-0.95312l24.527 24.527-52.527 52.305c-1.0078 0.95312-1.4531 2.4102-1.2305 3.7539s1.1211 2.5742 2.4062 3.1367zm22.121-91.504c-2.2969 0-4.2578-1.793-4.2578-4.0898l0.003906-0.22266c0-2.3516 1.8477-4.2578 4.2578-4.2578 2.2969 0 4.2578 1.9023 4.2578 4.2578-0.003907 2.4062-1.9648 4.3125-4.2617 4.3125zm87.586-14.227c15.121 40.32-5.375 85.23-45.586 100.35-17.695 6.6094-37.07 6.6094-54.824 0l-0.10938-0.16406z"/>
  <path d="m455.05 420.56h-203.67c-2.2969 0-4.2578 1.9023-4.2578 4.3125 0 2.3516 1.9609 4.2578 4.2578 4.2578h203.56c2.2969 0.10938 4.2578-1.793 4.3711-4.1445v-0.11328c0-2.4062-1.8477-4.3125-4.2578-4.3125z"/>
  <path d="m338.91 382.87c2.4062 0 4.2578-1.9609 4.2578-4.3125 0-2.3516-1.8477-4.2539-4.2578-4.2539h-77.445c-2.4062 0-4.3672 1.9609-4.3672 4.3125 0 2.3516 1.9609 4.3125 4.3672 4.3125h77.445z"/>
 </g>
</svg>
