<?xml version="1.0" encoding="UTF-8"?>
<svg width="700pt" height="700pt" version="1.1" viewBox="0 0 700 700" xmlns="http://www.w3.org/2000/svg" xmlns:xlink="http://www.w3.org/1999/xlink">
 <defs>
  <symbol id="v" overflow="visible">
   <path d="m18.609-1.1094c-0.96094 0.5-1.9609 0.875-3 1.125-1.043 0.25-2.125 0.375-3.25 0.375-3.375 0-6.0469-0.94141-8.0156-2.8281-1.9688-1.8828-2.9531-4.4414-2.9531-7.6719 0-3.2383 0.98438-5.8008 2.9531-7.6875 1.9688-1.8828 4.6406-2.8281 8.0156-2.8281 1.125 0 2.207 0.13281 3.25 0.39062 1.0391 0.25 2.0391 0.625 3 1.125v4.1875c-0.96875-0.65625-1.9219-1.1328-2.8594-1.4375-0.9375-0.3125-1.9297-0.46875-2.9688-0.46875-1.8672 0-3.3359 0.60156-4.4062 1.7969-1.0625 1.1875-1.5938 2.8281-1.5938 4.9219s0.53125 3.7422 1.5938 4.9375c1.0703 1.1875 2.5391 1.7812 4.4062 1.7812 1.0391 0 2.0312-0.14844 2.9688-0.45312 0.9375-0.3125 1.8906-0.79688 2.8594-1.4531z"/>
  </symbol>
  <symbol id="d" overflow="visible">
   <path d="m13.625-11.062c-0.42969-0.19531-0.85547-0.34375-1.2812-0.4375-0.41797-0.09375-0.83984-0.14062-1.2656-0.14062-1.25 0-2.2148 0.40234-2.8906 1.2031-0.66797 0.80469-1 1.9492-1 3.4375v7h-4.8594v-15.188h4.8594v2.4844c0.625-0.98828 1.3359-1.7109 2.1406-2.1719 0.8125-0.45703 1.7852-0.6875 2.9219-0.6875 0.16406 0 0.34375 0.011719 0.53125 0.03125 0.1875 0.011719 0.46094 0.039062 0.82812 0.078125z"/>
  </symbol>
  <symbol id="b" overflow="visible">
   <path d="m17.5-7.6406v1.3906h-11.359c0.125 1.1367 0.53516 1.9922 1.2344 2.5625 0.70703 0.57422 1.6953 0.85938 2.9688 0.85938 1.0195 0 2.0625-0.14844 3.125-0.45312 1.0703-0.3125 2.1758-0.77344 3.3125-1.3906v3.75c-1.1484 0.4375-2.2969 0.76562-3.4531 0.98438-1.1484 0.21875-2.293 0.32812-3.4375 0.32812-2.75 0-4.8906-0.69531-6.4219-2.0938-1.5234-1.3945-2.2812-3.3516-2.2812-5.875 0-2.4766 0.75-4.4258 2.25-5.8438 1.5-1.4258 3.5625-2.1406 6.1875-2.1406 2.3828 0 4.2891 0.71875 5.7188 2.1562 1.4375 1.4375 2.1562 3.3594 2.1562 5.7656zm-5-1.6094c0-0.92578-0.27344-1.6719-0.8125-2.2344-0.53125-0.5625-1.2305-0.84375-2.0938-0.84375-0.9375 0-1.7031 0.26562-2.2969 0.79688-0.58594 0.52344-0.94922 1.2812-1.0938 2.2812z"/>
  </symbol>
  <symbol id="l" overflow="visible">
   <path d="m9.1406-6.8438c-1.0117 0-1.7734 0.17188-2.2812 0.51562-0.51172 0.34375-0.76562 0.85547-0.76562 1.5312 0 0.61719 0.20312 1.1016 0.60938 1.4531 0.41406 0.34375 0.98828 0.51562 1.7188 0.51562 0.91406 0 1.6875-0.32812 2.3125-0.98438s0.9375-1.4766 0.9375-2.4688v-0.5625zm7.4219-1.8281v8.6719h-4.8906v-2.25c-0.65625 0.91797-1.3906 1.5898-2.2031 2.0156-0.8125 0.41406-1.8047 0.625-2.9688 0.625-1.5742 0-2.8555-0.45703-3.8438-1.375-0.98047-0.91406-1.4688-2.1094-1.4688-3.5781 0-1.7812 0.61328-3.082 1.8438-3.9062 1.2266-0.83203 3.1484-1.25 5.7656-1.25h2.875v-0.39062c0-0.76953-0.30859-1.332-0.92188-1.6875-0.60547-0.35156-1.5469-0.53125-2.8281-0.53125-1.043 0-2.0117 0.10547-2.9062 0.3125-0.89844 0.21094-1.7305 0.52344-2.5 0.9375v-3.7031c1.0391-0.25781 2.0859-0.45312 3.1406-0.57812 1.0508-0.13281 2.0977-0.20312 3.1406-0.20312 2.7383 0 4.7188 0.54297 5.9375 1.625 1.2188 1.0859 1.8281 2.8398 1.8281 5.2656z"/>
  </symbol>
  <symbol id="a" overflow="visible">
   <path d="m7.6406-19.5v4.3125h5v3.4688h-5v6.4375c0 0.71094 0.14062 1.1875 0.42188 1.4375s0.83203 0.375 1.6562 0.375h2.5v3.4688h-4.1562c-1.918 0-3.2773-0.39844-4.0781-1.2031-0.80469-0.80078-1.2031-2.1602-1.2031-4.0781v-6.4375h-2.4219v-3.4688h2.4219v-4.3125z"/>
  </symbol>
  <symbol id="f" overflow="visible">
   <path d="m12.672-12.969v-8.1406h4.875v21.109h-4.875v-2.2031c-0.66797 0.89844-1.4062 1.5547-2.2188 1.9688-0.80469 0.41406-1.7305 0.625-2.7812 0.625-1.875 0-3.418-0.73828-4.625-2.2188-1.1992-1.4883-1.7969-3.4062-1.7969-5.75s0.59766-4.2578 1.7969-5.75c1.207-1.4883 2.75-2.2344 4.625-2.2344 1.0391 0 1.9688 0.21484 2.7812 0.64062 0.8125 0.41797 1.5508 1.0703 2.2188 1.9531zm-3.2031 9.8281c1.0391 0 1.832-0.375 2.375-1.125 0.55078-0.75781 0.82812-1.8633 0.82812-3.3125 0-1.4453-0.27734-2.5508-0.82812-3.3125-0.54297-0.75781-1.3359-1.1406-2.375-1.1406-1.0312 0-1.8242 0.38281-2.375 1.1406-0.54297 0.76172-0.8125 1.8672-0.8125 3.3125 0 1.4492 0.26953 2.5547 0.8125 3.3125 0.55078 0.75 1.3438 1.125 2.375 1.125z"/>
  </symbol>
  <symbol id="k" overflow="visible">
   <path d="m10.422-3.1406c1.0391 0 1.832-0.375 2.375-1.125 0.55078-0.75781 0.82812-1.8633 0.82812-3.3125 0-1.4453-0.27734-2.5508-0.82812-3.3125-0.54297-0.75781-1.3359-1.1406-2.375-1.1406-1.043 0-1.8438 0.38672-2.4062 1.1562-0.55469 0.76172-0.82812 1.8594-0.82812 3.2969s0.27344 2.5391 0.82812 3.2969c0.5625 0.76172 1.3633 1.1406 2.4062 1.1406zm-3.2344-9.8281c0.66406-0.88281 1.4062-1.5352 2.2188-1.9531 0.82031-0.42578 1.7578-0.64062 2.8125-0.64062 1.875 0 3.4102 0.74609 4.6094 2.2344 1.207 1.4922 1.8125 3.4062 1.8125 5.75s-0.60547 4.2617-1.8125 5.75c-1.1992 1.4805-2.7344 2.2188-4.6094 2.2188-1.0547 0-1.9922-0.21094-2.8125-0.625-0.8125-0.42578-1.5547-1.082-2.2188-1.9688v2.2031h-4.8594v-21.109h4.8594z"/>
  </symbol>
  <symbol id="e" overflow="visible">
   <path d="m0.34375-15.188h4.8594l4.0781 10.297 3.4688-10.297h4.8594l-6.3906 16.625c-0.64844 1.6875-1.3984 2.8672-2.25 3.5469-0.85547 0.67578-1.9805 1.0156-3.375 1.0156h-2.8125v-3.1875h1.5156c0.82031 0 1.4219-0.13672 1.7969-0.40625 0.375-0.26172 0.66406-0.73047 0.875-1.4062l0.14062-0.42188z"/>
  </symbol>
  <symbol id="j" overflow="visible">
   <path d="m14.844-3.6875h-8.1719l-1.2812 3.6875h-5.25l7.5-20.25h6.2188l7.5 20.25h-5.25zm-6.875-3.7656h5.5625l-2.7812-8.0469z"/>
  </symbol>
  <symbol id="i" overflow="visible">
   <path d="m16.406-12.672c0.625-0.9375 1.3594-1.6484 2.2031-2.1406 0.84375-0.5 1.7695-0.75 2.7812-0.75 1.75 0 3.0781 0.54297 3.9844 1.625 0.91406 1.0742 1.375 2.6367 1.375 4.6875v9.25h-4.8906v-7.9219c0.007813-0.11328 0.015625-0.23438 0.015625-0.35938 0.007812-0.13281 0.015625-0.31641 0.015625-0.54688 0-1.0703-0.16406-1.8477-0.48438-2.3281-0.3125-0.48828-0.82031-0.73438-1.5156-0.73438-0.92969 0-1.6406 0.38281-2.1406 1.1406-0.5 0.75-0.76172 1.8516-0.78125 3.2969v7.4531h-4.875v-7.9219c0-1.6758-0.14844-2.7539-0.4375-3.2344-0.29297-0.48828-0.80859-0.73438-1.5469-0.73438-0.9375 0-1.6641 0.38281-2.1719 1.1406-0.5 0.76172-0.75 1.8555-0.75 3.2812v7.4688h-4.875v-15.188h4.875v2.2188c0.59375-0.85156 1.2734-1.5 2.0469-1.9375 0.78125-0.4375 1.6328-0.65625 2.5625-0.65625 1.0508 0 1.9766 0.25781 2.7812 0.76562 0.8125 0.5 1.4219 1.2109 1.8281 2.125z"/>
  </symbol>
  <symbol id="h" overflow="visible">
   <path d="m17.609-9.25v9.25h-4.8906v-7.0469c0-1.332-0.03125-2.25-0.09375-2.75-0.054688-0.5-0.15234-0.86328-0.29688-1.0938-0.1875-0.32031-0.44922-0.56641-0.78125-0.73438-0.32422-0.17578-0.69531-0.26562-1.1094-0.26562-1.0117 0-1.8086 0.39062-2.3906 1.1719-0.57422 0.78125-0.85938 1.8672-0.85938 3.25v7.4688h-4.8594v-21.109h4.8594v8.1406c0.72656-0.88281 1.5039-1.5352 2.3281-1.9531 0.82031-0.42578 1.7344-0.64062 2.7344-0.64062 1.75 0 3.0781 0.54297 3.9844 1.625 0.91406 1.0742 1.375 2.6367 1.375 4.6875z"/>
  </symbol>
  <symbol id="u" overflow="visible">
   <path d="m14.203-14.719v3.6875c-1.043-0.42578-2.0469-0.75-3.0156-0.96875s-1.8828-0.32812-2.7344-0.32812c-0.92969 0-1.6172 0.11719-2.0625 0.34375-0.44922 0.23047-0.67188 0.58594-0.67188 1.0625 0 0.38672 0.16406 0.68359 0.5 0.89062 0.34375 0.21094 0.95703 0.36719 1.8438 0.46875l0.84375 0.125c2.4883 0.3125 4.1602 0.83594 5.0156 1.5625 0.86328 0.71875 1.2969 1.8555 1.2969 3.4062 0 1.6172-0.60156 2.8281-1.7969 3.6406-1.1875 0.8125-2.9688 1.2188-5.3438 1.2188-1 0-2.0391-0.078125-3.1094-0.23438-1.0742-0.15625-2.1719-0.39453-3.2969-0.71875v-3.6875c0.96875 0.46875 1.957 0.82422 2.9688 1.0625 1.0195 0.24219 2.0547 0.35938 3.1094 0.35938 0.94531 0 1.6602-0.12891 2.1406-0.39062 0.47656-0.26953 0.71875-0.66016 0.71875-1.1719 0-0.4375-0.16797-0.75781-0.5-0.96875-0.32422-0.21875-0.98047-0.38281-1.9688-0.5l-0.85938-0.10938c-2.1562-0.26953-3.6719-0.76953-4.5469-1.5-0.86719-0.73828-1.2969-1.8516-1.2969-3.3438 0-1.6016 0.55078-2.7969 1.6562-3.5781 1.1016-0.78125 2.7969-1.1719 5.0781-1.1719 0.89453 0 1.832 0.070312 2.8125 0.20312 0.98828 0.13672 2.0625 0.35156 3.2188 0.64062z"/>
  </symbol>
  <symbol id="t" overflow="visible">
   <path d="m16.641-19.609v4.2812c-1.1172-0.5-2.2031-0.875-3.2656-1.125-1.0547-0.25-2.0469-0.375-2.9844-0.375-1.25 0-2.1719 0.17188-2.7656 0.51562s-0.89062 0.875-0.89062 1.5938c0 0.54297 0.19531 0.96484 0.59375 1.2656 0.40625 0.30469 1.1328 0.5625 2.1875 0.78125l2.2344 0.45312c2.25 0.44922 3.8477 1.1367 4.7969 2.0625 0.94531 0.91797 1.4219 2.2305 1.4219 3.9375 0 2.2305-0.66406 3.8906-1.9844 4.9844-1.3242 1.0859-3.3438 1.625-6.0625 1.625-1.293 0-2.5859-0.125-3.875-0.375-1.293-0.23828-2.5859-0.59766-3.875-1.0781v-4.4062c1.2891 0.6875 2.5391 1.2109 3.75 1.5625 1.207 0.34375 2.375 0.51562 3.5 0.51562 1.1328 0 2.0039-0.1875 2.6094-0.5625 0.60156-0.38281 0.90625-0.92969 0.90625-1.6406 0-0.625-0.21094-1.1094-0.625-1.4531-0.40625-0.34375-1.2266-0.64844-2.4531-0.92188l-2.0156-0.45312c-2.0312-0.4375-3.5156-1.1289-4.4531-2.0781-0.92969-0.94531-1.3906-2.2266-1.3906-3.8438 0-2.0078 0.64844-3.5547 1.9531-4.6406 1.3008-1.0938 3.1719-1.6406 5.6094-1.6406 1.1133 0 2.2578 0.089844 3.4375 0.26562 1.1758 0.16797 2.3906 0.41797 3.6406 0.75z"/>
  </symbol>
  <symbol id="g" overflow="visible">
   <path d="m2.1719-5.9219v-9.2656h4.875v1.5156c0 0.82422-0.007813 1.8594-0.015625 3.1094v2.4844c0 1.2188 0.03125 2.1016 0.09375 2.6406 0.0625 0.53125 0.17188 0.92188 0.32812 1.1719 0.19531 0.3125 0.45312 0.55859 0.76562 0.73438 0.32031 0.16797 0.69141 0.25 1.1094 0.25 1.0195 0 1.8164-0.38281 2.3906-1.1562 0.58203-0.78125 0.875-1.8633 0.875-3.25v-7.5h4.8438v15.188h-4.8438v-2.2031c-0.74219 0.88672-1.5234 1.543-2.3438 1.9688-0.8125 0.41406-1.7109 0.625-2.6875 0.625-1.7617 0-3.1016-0.53516-4.0156-1.6094-0.91797-1.0703-1.375-2.6406-1.375-4.7031z"/>
  </symbol>
  <symbol id="s" overflow="visible">
   <path d="m2.3281-15.188h4.8594v15.188h-4.8594zm0-5.9219h4.8594v3.9688h-4.8594z"/>
  </symbol>
  <symbol id="c" overflow="visible">
   <path d="m9.5625-12.094c-1.0742 0-1.8984 0.39062-2.4688 1.1719-0.5625 0.77344-0.84375 1.8867-0.84375 3.3438 0 1.4492 0.28125 2.5625 0.84375 3.3438 0.57031 0.77344 1.3945 1.1562 2.4688 1.1562 1.0625 0 1.8672-0.38281 2.4219-1.1562 0.5625-0.78125 0.84375-1.8945 0.84375-3.3438 0-1.457-0.28125-2.5703-0.84375-3.3438-0.55469-0.78125-1.3594-1.1719-2.4219-1.1719zm0-3.4688c2.6133 0 4.6562 0.71094 6.125 2.125 1.4688 1.4062 2.2031 3.3594 2.2031 5.8594 0 2.4922-0.73438 4.4453-2.2031 5.8594-1.4688 1.4062-3.5117 2.1094-6.125 2.1094-2.625 0-4.6797-0.70312-6.1562-2.1094-1.4805-1.4141-2.2188-3.3672-2.2188-5.8594 0-2.5 0.73828-4.4531 2.2188-5.8594 1.4766-1.4141 3.5312-2.125 6.1562-2.125z"/>
  </symbol>
  <symbol id="r" overflow="visible">
   <path d="m12.328-21.109v3.1875h-2.6875c-0.6875 0-1.168 0.125-1.4375 0.375-0.27344 0.25-0.40625 0.68359-0.40625 1.2969v1.0625h4.1562v3.4688h-4.1562v11.719h-4.8594v-11.719h-2.4062v-3.4688h2.4062v-1.0625c0-1.6562 0.45703-2.8789 1.375-3.6719 0.92578-0.78906 2.3594-1.1875 4.2969-1.1875z"/>
  </symbol>
  <symbol id="q" overflow="visible">
   <path d="m2.5469-20.25h5.8438l7.3594 13.891v-13.891h4.9531v20.25h-5.8281l-7.375-13.891v13.891h-4.9531z"/>
  </symbol>
  <symbol id="p" overflow="visible">
   <path d="m17.609-9.25v9.25h-4.8906v-7.0781c0-1.3125-0.03125-2.2188-0.09375-2.7188-0.054688-0.5-0.15234-0.86328-0.29688-1.0938-0.1875-0.32031-0.44922-0.56641-0.78125-0.73438-0.32422-0.17578-0.69531-0.26562-1.1094-0.26562-1.0117 0-1.8086 0.39062-2.3906 1.1719-0.57422 0.78125-0.85938 1.8672-0.85938 3.25v7.4688h-4.8594v-15.188h4.8594v2.2188c0.72656-0.88281 1.5039-1.5352 2.3281-1.9531 0.82031-0.42578 1.7344-0.64062 2.7344-0.64062 1.75 0 3.0781 0.54297 3.9844 1.625 0.91406 1.0742 1.375 2.6367 1.375 4.6875z"/>
  </symbol>
  <symbol id="o" overflow="visible">
   <path d="m2.5469-20.25h8.6719c2.5703 0 4.5469 0.57422 5.9219 1.7188 1.3828 1.1367 2.0781 2.7656 2.0781 4.8906s-0.69531 3.7617-2.0781 4.9062c-1.375 1.1367-3.3516 1.7031-5.9219 1.7031h-3.4531v7.0312h-5.2188zm5.2188 3.7812v5.6562h2.8906c1.0195 0 1.8047-0.24219 2.3594-0.73438 0.55078-0.5 0.82812-1.1953 0.82812-2.0938 0-0.90625-0.27734-1.6016-0.82812-2.0938-0.55469-0.48828-1.3398-0.73438-2.3594-0.73438z"/>
  </symbol>
  <symbol id="n" overflow="visible">
   <path d="m2.3281-15.188h4.8594v14.922c0 2.0312-0.49219 3.582-1.4688 4.6562-0.96875 1.0703-2.3828 1.6094-4.2344 1.6094h-2.4062v-3.1875h0.84375c0.91406 0 1.5469-0.21094 1.8906-0.625 0.34375-0.41797 0.51562-1.2344 0.51562-2.4531zm0-5.9219h4.8594v3.9688h-4.8594z"/>
  </symbol>
  <symbol id="m" overflow="visible">
   <path d="m14.609-14.719v3.9688c-0.65625-0.45703-1.3203-0.79688-1.9844-1.0156-0.66797-0.21875-1.3594-0.32812-2.0781-0.32812-1.3555 0-2.4141 0.39844-3.1719 1.1875-0.75 0.79297-1.125 1.9023-1.125 3.3281 0 1.418 0.375 2.5234 1.125 3.3125 0.75781 0.79297 1.8164 1.1875 3.1719 1.1875 0.75781 0 1.4766-0.10938 2.1562-0.32812 0.6875-0.22656 1.3203-0.56641 1.9062-1.0156v3.9688c-0.76172 0.28125-1.5312 0.48828-2.3125 0.625-0.78125 0.14453-1.5703 0.21875-2.3594 0.21875-2.7422 0-4.8867-0.70312-6.4375-2.1094-1.543-1.4062-2.3125-3.3594-2.3125-5.8594 0-2.5078 0.76953-4.4688 2.3125-5.875 1.5508-1.4062 3.6953-2.1094 6.4375-2.1094 0.80078 0 1.5859 0.074219 2.3594 0.21875 0.76953 0.13672 1.5391 0.34375 2.3125 0.625z"/>
  </symbol>
 </defs>
 <g>
  <path d="m406.43 362.66h-112.86c-13.312 0-24.137 10.828-24.137 24.137v1.418c0 13.312 10.828 24.137 24.137 24.137h112.85c13.312 0 24.137-10.828 24.137-24.137v-1.418c0.003906-13.309-10.824-24.137-24.129-24.137zm-106.59 11.113h100.32v27.465h-100.32zm-19.293 14.441v-1.418c0-5.4648 3.3945-10.137 8.1836-12.07v25.555c-4.7852-1.9258-8.1836-6.5977-8.1836-12.066zm138.91 0c0 5.4648-3.3945 10.145-8.1836 12.07v-25.555c4.7891 1.9258 8.1836 6.6016 8.1836 12.07z"/>
  <path d="m477.25 382.73c-10.039 0-18.199 8.168-18.199 18.207 0 10.039 8.168 18.199 18.199 18.199s18.199-8.168 18.199-18.199c0-10.039-8.168-18.207-18.199-18.207zm0 25.301c-3.9102 0-7.0898-3.1758-7.0898-7.0898 0-3.9102 3.1758-7.0938 7.0898-7.0938 3.9102 0 7.0898 3.1836 7.0898 7.0938-0.003907 3.9102-3.1797 7.0898-7.0898 7.0898z"/>
  <path d="m222.75 382.73c-10.039 0-18.199 8.168-18.199 18.207 0 10.039 8.168 18.199 18.199 18.199s18.199-8.168 18.199-18.199c0.003906-10.039-8.1602-18.207-18.199-18.207zm0 25.301c-3.9102 0-7.0898-3.1758-7.0898-7.0898 0-3.9102 3.1758-7.0938 7.0898-7.0938 3.9102 0 7.0898 3.1836 7.0898 7.0938s-3.1758 7.0898-7.0898 7.0898z"/>
  <path d="m698.61 293.12c-2.6055-5.8984-8.207-9.5625-14.617-9.5625l-155.08 0.003906c-2.3398-14.801-5.4961-26.559-9.4961-30.723-10.484-10.91-29.254-11.898-36.66-11.84-11.367-13.883-32.66-16.289-46.41-16.234-2.707-3.4766-5.6094-6.7734-8.6406-9.957-0.52734-0.99609-1.2852-1.832-2.3008-2.3555-18.555-18.488-43.016-31.012-75.406-31.012-32.387 0-56.844 12.523-75.398 31.012-1.0156 0.52344-1.7734 1.3594-2.3008 2.3555-3.0273 3.1836-5.9375 6.4844-8.6445 9.9609-13.316 0.003906-34.898 2.1953-46.406 16.227-7.4062-0.066407-26.176 0.93359-36.664 11.84-4 4.1602-7.1562 15.926-9.4961 30.723l-155.09-0.003907c-6.4102 0-12.012 3.6602-14.617 9.5625-2.5625 5.793-1.5234 12.277 2.707 16.922 28.727 31.559 83.258 47.867 161.98 48.578 0.16016 10.434 0.81641 18.355 1.9609 21.465 4.1094 11.148 12.801 19.965 16.621 23.477 1.3555 19.855 17.898 35.609 38.094 35.609 10.629 0 20.242-4.3672 27.176-11.387 0.34375 12.934 10.918 23.359 23.934 23.359 11.312 0 20.762-7.8906 23.281-18.438h105.7c2.5234 10.551 11.973 18.438 23.281 18.438 13.016 0 23.59-10.426 23.934-23.359 6.9336 7.0234 16.555 11.387 27.176 11.387 20.195 0 36.738-15.754 38.094-35.609 3.8203-3.5039 12.512-12.328 16.621-23.477 1.1445-3.1094 1.8008-11.031 1.9609-21.465 78.73-0.71094 133.26-17.012 161.98-48.57 4.25-4.6484 5.2812-11.129 2.7188-16.926zm-82.207 1.5508v44.176c-23.387 5.457-51.059 8.3555-82.477 8.6562-0.22656-16.148-1.3789-35.625-3.4727-52.832zm-140.98-44.965c5.8906 8.8906 2.1602 32.367-3.3398 52.52-5.7148-21.621-14.465-45.344-27.742-66.043 14.84 1.1523 26.027 5.8945 31.082 13.523zm-49.289 74.176h-152.27c-13.234 0-23.992 10.766-23.992 23.992v26.148c-5.6172-5.6602-12.992-9.5312-21.227-10.816 1.5-19.41 9.2461-88.488 44.539-132.6 2.582 19.406 7.9609 54.539 14.266 65.887 9.1953 16.551 53.715 17.387 62.547 17.387s53.355-0.83203 62.547-17.387c6.3008-11.34 11.672-46.422 14.262-65.836 35.254 44.117 43.031 113.15 44.543 132.55-8.2266 1.2852-15.609 5.1562-21.227 10.816v-26.148c0.003906-13.23-10.762-23.992-23.992-23.992zm-23.281 18.438h-105.7c-0.63281-2.6406-1.6836-5.1055-3.1055-7.3281h111.91c-1.4297 2.2227-2.4766 4.6914-3.1055 7.3281zm-114.61-86.668c41.777-18.965 83.305-18.977 123.52-0.0625-2.6328 15.273-5.8125 29.895-8.9336 35.516-4.418 7.9492-34.145 11.668-52.836 11.672-18.688 0-48.41-3.7109-52.836-11.672-3.1172-5.6094-6.2891-20.203-8.918-35.453zm128.76-35.938c-0.76172 6.2656-1.9336 15.078-3.3828 24.484-41.531-18.648-84.258-18.609-127.23 0.10547-1.4609-9.4609-2.6406-18.328-3.3984-24.621 16.738-16.293 38.559-27.129 67.008-27.129 28.449 0 50.273 10.848 67.004 27.16zm-161.34 16.469c-13.281 20.703-22.031 44.434-27.75 66.055-5.5-20.148-9.2344-43.625-3.332-52.531 5.0625-7.6289 16.242-12.371 31.082-13.523zm-89.586 111.32c-31.414-0.30078-59.082-3.1992-82.477-8.6562v-44.176h85.949c-2.0938 17.207-3.2461 36.684-3.4727 52.832zm-153.77-44.941c-1.7891-1.9648-1.1289-4.1094-0.76172-4.9492 0.30469-0.6875 1.5234-2.9375 4.457-2.9375h56.488v41.301c-26.539-7.5781-46.855-18.777-60.184-33.414zm166.16 73.676c-1.2109-3.2891-1.75-11.383-1.7461-21.848 0.10156-0.41797 0.25391-0.81641 0.25391-1.2617 0-0.42188-0.14844-0.80078-0.23828-1.1992 0.14453-18.367 1.8281-43.016 4.4492-62.223 0.023438-0.20703 0.11719-0.38281 0.11719-0.59375 0-0.042969-0.023438-0.078125-0.023438-0.12109 1.9961-14.371 4.5156-25.551 7.3125-28.453 5.4727-5.6953 15.578-7.6758 23.199-8.2344-5.3398 23.051 8.2148 63.004 11.195 71.332-3.4883 17.789-4.9219 32.266-5.4648 39.477-14.668 2.0234-26.703 12.367-31.145 26.133-2.9453-3.5195-6.0664-7.9961-7.9102-13.008zm44.285 51.82c-14.949 0-27.117-12.16-27.117-27.117s12.16-27.121 27.117-27.121c14.957 0 27.117 12.168 27.117 27.121 0 14.957-12.16 27.117-27.117 27.117zm216.26-0.91016c0 7.1055-5.7773 12.883-12.883 12.883-7.1055 0-12.883-5.7773-12.883-12.883 0-3.0703-2.4844-5.5547-5.5547-5.5547h-115.39c-3.0703 0-5.5547 2.4844-5.5547 5.5547 0 7.1055-5.7773 12.883-12.883 12.883-7.1055 0-12.883-5.7773-12.883-12.883v-79.273c0-7.1055 5.7773-12.883 12.883-12.883 7.1055 0 12.883 5.7773 12.883 12.883 0 3.0703 2.4844 5.5547 5.5547 5.5547h115.39c3.0703 0 5.5547-2.4844 5.5547-5.5547 0-7.1055 5.7773-12.883 12.883-12.883 7.1055 0 12.883 5.7773 12.883 12.883zm38.23 0.91016c-14.949 0-27.117-12.16-27.117-27.117s12.16-27.121 27.117-27.121c14.957 0 27.117 12.168 27.117 27.121-0.003906 14.957-12.168 27.117-27.117 27.117zm36.371-38.832c-4.4375-13.754-16.473-24.094-31.133-26.117-0.55078-7.2109-1.9844-21.688-5.4648-39.477 2.9766-8.3281 16.539-48.293 11.195-71.344 7.6211 0.55469 17.727 2.5508 23.199 8.2461 2.793 2.9062 5.3164 14.078 7.3125 28.453 0 0.042969-0.023437 0.078125-0.023437 0.12109 0 0.21094 0.09375 0.39062 0.11719 0.59375 2.6211 19.207 4.3047 43.859 4.4492 62.223-0.089843 0.39844-0.23828 0.77344-0.23828 1.1992 0 0.44922 0.15625 0.84375 0.25391 1.2617 0 10.465-0.53906 18.562-1.7461 21.848-1.8477 4.9844-4.9727 9.4648-7.9219 12.992zm174.08-86.66c-13.328 14.637-33.637 25.84-60.184 33.406v-41.301h56.488c2.9258 0 4.1484 2.25 4.457 2.9375 0.36719 0.83984 1.0273 2.9844-0.76172 4.957z"/>
 </g>
</svg>
