<?xml version="1.0" encoding="UTF-8"?>
<svg width="700pt" height="700pt" version="1.1" viewBox="0 0 700 700" xmlns="http://www.w3.org/2000/svg">
 <path d="m501.69 303.08c-70.746 0-128.33 57.562-128.33 128.33 0 70.77 57.586 128.33 128.33 128.33s128.33-57.562 128.33-128.33c0-70.77-57.586-128.33-128.33-128.33zm0 233.33c-57.891 0-105-47.109-105-105s47.109-105 105-105 105 47.109 105 105-47.113 105-105 105zm-158.13-127.1c-3.2656-1.6328-7.1406-1.6328-10.43 0l-142.01 71.004 30.332-151.62c0.76953-3.8281-0.44141-7.793-3.1953-10.547l-111.62-111.62 151.71-20.113c3.8477-0.51172 7.1875-2.8945 8.9141-6.3477l71.098-142.52 71.074 142.52c1.7266 3.4531 5.0625 5.832 8.9141 6.3477l151.69 20.113-54.902 54.902c-4.5508 4.5508-4.5508 11.945 0 16.496s11.945 4.5508 16.496 0l71.609-71.609c3.1484-3.125 4.2227-7.793 2.8008-11.992-1.4219-4.1992-5.1328-7.2344-9.5195-7.8164l-168.98-22.398-78.773-157.92c-3.9219-7.9102-16.965-7.9102-20.883 0l-78.781 157.92-168.98 22.398c-4.3867 0.58594-8.0703 3.6211-9.5195 7.8203-1.4219 4.1992-0.35156 8.8438 2.8008 11.992l123.92 123.92-33.762 168.87c-0.86328 4.3867 0.83984 8.8672 4.3633 11.574 2.0781 1.5859 4.5977 2.4023 7.0938 2.4023 1.7734 0 3.5703-0.42188 5.1797-1.2148l160.86-80.43c3.3359-0.72266 6.3242-2.9648 7.9805-6.3242 2.8945-5.7617 0.28125-12.902-5.4844-15.797zm204.8 10.43h-35v-35c0-6.4414-5.2266-11.668-11.668-11.668s-11.668 5.2266-11.668 11.668v35h-35c-6.4414 0-11.668 5.2266-11.668 11.668s5.2266 11.668 11.668 11.668h35v35c0 6.4414 5.2266 11.668 11.668 11.668s11.668-5.2266 11.668-11.668v-35h35c6.4414 0 11.668-5.2266 11.668-11.668s-5.2266-11.668-11.668-11.668z"/>
</svg>
